<?xml version="1.0" encoding="UTF-8"?><svg xmlns="http://www.w3.org/2000/svg" xmlns:xlink="http://www.w3.org/1999/xlink" height="359.5" preserveAspectRatio="xMidYMid meet" version="1.0" viewBox="-0.8 -1.2 479.8 359.5" width="479.8" zoomAndPan="magnify"><g id="change1_1"><path d="M478.8,90.4c-0.1-3-0.3-6-0.5-8.9c-0.1-1.1-0.2-2.2-0.3-3.3s-0.2-2.4-0.4-3.6c-0.7-5.1-1.5-10.1-2.6-15.2 c-0.3-1.3-0.5-2.7-0.9-4l-1-4.2c-0.3-1.2-0.7-2.5-1.1-3.7s-0.8-2.5-1.2-3.7c-1.5-4.5-3.2-9-5-13.5c-1-2.5-1.9-5-2.9-7.4 c-0.9-2.3-1.9-4.6-3-6.8c-1.1-2.3-2.4-4.5-3.9-6.6c-1.1-1.6-2.3-3-3.4-4.6c0-0.1-0.1-0.1-0.1-0.2c-1.6-4-6.1-5.9-10.1-4.3 c-1.8,0.7-3.3,2.1-4.2,3.9c-0.8,1.7-1,3.7-0.4,5.5c0.5,1.5,1.3,3,2.2,4.3c1.3,1.8,2.7,3.5,4,5.3c0.8,1.3,1.5,2.6,2.2,4 c2,4.3,3.6,8.8,5.3,13.2c1.8,4.7,3.6,9.5,5.2,14.3c0.4,1.3,0.8,2.6,1.2,3.9c0.4,1.5,0.8,3,1.1,4.5c0.6,2.7,1.1,5.4,1.6,8.1 c0.3,1.5,0.6,3,0.8,4.5s0.5,3.1,0.7,4.7s0.4,3.3,0.5,5c0.1,1.5,0.2,3,0.3,4.5c0.1,2.1,0.2,4.1,0.2,6.2c0,2.4,0,4.9,0,7.3 c0,4.3-0.3,8.6-0.6,12.9c-0.4,4.7-0.8,9.4-1.3,14.1c-0.3,2.6-0.7,5.2-1.1,7.8c-0.3,2.3-0.8,4.6-1.2,7c0-0.2,0.1-0.4,0.1-0.6 c-0.5,2.3-1,4.7-1.5,7c-0.7,2.8-1.4,5.5-2.1,8.2s-1.5,5.4-2.4,8.1c-0.7,2.3-1.5,4.5-2.2,6.7l-1.8,5.1c-0.7,1.9-1.4,3.7-2.1,5.6 c-1.3,3.4-2.8,6.9-4.2,10.3c-1.4,3.2-2.7,6.5-4.2,9.7c-0.8,1.7-1.5,3.4-2.4,5.1s-1.7,3.3-2.5,5c-0.6,1-1.1,2-1.7,3 c-0.5,0.9-0.9,1.7-1.4,2.6c-1.2,2-2.3,4-3.5,5.9s-2.3,3.8-3.5,5.6l-3.5,5.2l-1.8,2.5c-0.6,0.9-1.2,1.8-1.9,2.6l-2,2.7 c-0.7,0.9-1.3,1.8-2,2.7l-2.3,2.5c-0.7,0.9-1.4,1.8-2.1,2.6l-3.9,4.3l-4,4.1c-0.6,0.7-1.3,1.3-2,2c-0.7-0.5-1.5-1-2.3-1.5 c-1.1-0.7-2.2-1.4-3.4-2s-2.5-1.3-3.8-1.9s-2.3-1.1-3.5-1.5l-3.8-1.4c-2.6-1-5.3-1.7-8-2.4c-1.3-0.4-2.6-0.6-4-0.9s-2.5-0.6-3.7-0.7 l-4.6-0.6c-1.1-0.2-2.3-0.2-3.4-0.3c-1.3-0.1-2.6-0.2-3.9-0.2s-2.6-0.1-4-0.1l-4.3,0.1c-1.2,0-2.4,0.1-3.6,0.2s-2.5,0.1-3.7,0.3 l-4.5,0.5c-1.3,0.2-2.6,0.4-3.9,0.7s-2.4,0.4-3.6,0.7s-2.5,0.5-3.6,0.9l-3.7,1.1c-0.9,0.3-1.8,0.6-2.7,0.9c-0.5,0.2-1,0.3-1.4,0.5 c-1.1,0.5-2.2,0.9-3.4,1.4c-2.4,1.1-4.8,2.2-7.1,3.5c-1.8,1-3.5,2-5.2,3.1c-2.9,1.8-5.6,4-8,6.3c-1.4,1.3-2.7,2.7-3.9,4.2 c-1,1.2-1.9,2.5-2.7,3.8c-0.9,1.4-1.6,2.9-2.2,4.5c-0.6,1.6-1,3.2-1.4,4.8c-0.4,2.1-0.6,4.2-0.4,6.3c0.1,0.9,0.2,1.7,0.4,2.6 c0.2,0.8,0.4,1.7,0.8,2.5c0.3,0.8,0.7,1.5,1.1,2.3c0.4,0.7,0.9,1.4,1.4,2.1c1.1,1.4,2.3,2.6,3.6,3.6c1.5,1.1,3.2,2,4.9,2.8 c1.5,0.7,3,1.3,4.6,1.7c3.1,1,6.3,1.6,9.6,2c3,0.3,6,0.5,9.1,0.4c1.5,0,2.9,0,4.3-0.1l4.5-0.3c1.1-0.1,2.2-0.2,3.2-0.3 s2.1-0.2,3.2-0.3c2.5-0.4,4.9-0.7,7.4-1.1l4.3-0.8c1.4-0.3,2.8-0.6,4.2-1c1-0.2,2.1-0.5,3.1-0.8l4.6-1.4c2.6-0.8,5.2-1.8,7.8-2.8 c0.9-0.4,1.9-0.8,2.8-1.2l3.9-1.7c1.3-0.6,2.6-1.3,3.9-1.9c1-0.5,2.1-1,3-1.5l4.1-2.3c0.8-0.4,1.5-0.8,2.2-1.3 c2.3-1.5,4.6-2.8,6.8-4.4s4.2-2.9,6.2-4.5l2.1-1.7l0.3,0.5c0.4,0.6,0.7,1.3,1.1,1.9s0.5,1.1,0.7,1.6s0.2,0.8,0.3,1.3 s0.1,0.8,0.2,1.2s0,1.1,0,1.6s-0.1,1.2-0.2,1.7s-0.4,1.4-0.6,2.1s-0.6,1.4-0.9,2.1s-0.8,1.4-1.3,2.1c-0.8,1.1-1.6,2.1-2.5,3.1 c-1.6,1.6-3.2,3.2-4.9,4.6c-0.7,0.6-1.5,1.2-2.2,1.7s-1.5,1.2-2.2,1.7l-3.8,2.5l-2.5,1.4c-0.8,0.4-1.5,0.9-2.3,1.3l-4.9,2.4 l-4.9,2.2c-1.3,0.6-2.7,1.1-4,1.6s-2.5,1-3.8,1.5l-4.8,1.7c-2.1,0.6-4.2,1.4-6.4,1.9c-2.4,0.6-4.7,1.4-7.1,2s-4.9,1.3-7.4,1.8 l-7.3,1.6c-2.7,0.5-5.3,1-8,1.4c-3.2,0.5-6.5,1-9.7,1.5c-2.5,0.4-4.9,0.8-7.3,1.1c-2.7,0.4-5.4,0.8-8.1,1.1l-8.5,1 c-2.6,0.3-5.2,0.5-7.8,0.7c-4.8,0.4-9.7,0.8-14.5,1.1s-9.4,0.7-14.2,1l-8.1,0.4c-2.9,0.1-5.7,0.1-8.6,0.2c-1.9,0-3.8,0-5.6,0h-2.7 c-2.6,0-5.1,0-7.6,0c-9.8-0.1-19.6-0.1-29.4-0.6c-5-0.2-10-0.5-15-0.8s-10.1-0.7-15.2-1c-4.6-0.3-9.2-0.7-13.8-1.1 c-5.1-0.4-10.3-0.9-15.4-1.4c-2.6-0.3-5.2-0.5-7.8-0.9s-5.3-0.7-7.9-1.1c-5.1-0.8-10.2-1.6-15.3-2.5c-9.6-1.6-19.2-3.4-28.8-5.1 c-10-1.8-20-3.4-30-5.2l-4.6-0.8c3.9-1.7,7.9-3.4,11.9-5c2.6-1.1,5.1-2.2,7.7-3.3c2.2-0.9,4.3-1.8,6.5-2.6l0.3-0.1 c2-0.5,3.6-1.8,4.7-3.5c1.1-1.8,1.4-3.9,0.9-5.9c-0.5-2-1.8-3.7-3.5-4.7c-1.8-1.1-3.9-1.4-5.9-0.9c-4,1.3-7.9,2.8-11.7,4.6 c-4.1,1.8-8.2,3.5-12.3,5.2c-2.4,1-4.7,2-7.1,3.1c-1,0.4-2,0.9-2.9,1.4s-2,0.9-3,1.5c-3.7,2-7.3,4.1-11,5.9 c-0.8,0.3-1.5,0.7-2.2,1.1c-1.2,0.6-2.2,1.5-3,2.5c-2,2.4-2.3,5.8-0.8,8.6c0.5,0.8,1.1,1.5,1.8,2.1c0.1,0.1,0.2,0.3,0.4,0.4l0.2,0.2 c0.4,0.4,0.8,0.9,1.3,1.3l1.8,1.8c3.7,3.7,7.3,7.5,10.9,11.4s7.3,7.6,11.2,11.1c0.6,0.5,1.1,1,1.7,1.5c1.4,1.1,3.1,1.7,4.8,1.7 c0.3,0,0.6,0,0.9-0.1c4.2-0.5,7.3-4.4,6.7-8.6c0,0,0,0,0,0c-0.3-2-1.3-3.8-2.8-5.1l-1.1-1c-1.1-1-2.2-2-3.2-3.1 c-2.1-2.1-4.2-4.2-6.2-6.4c3.4,0.6,6.7,1.2,10.1,1.8c4.7,0.9,9.4,1.6,14.1,2.4c5.2,0.9,10.3,1.8,15.5,2.7c9.7,1.7,19.4,3.5,29.1,5.1 c5.2,0.9,10.5,1.7,15.7,2.4c4.8,0.6,9.6,1.2,14.4,1.6c10.5,1,21,1.8,31.5,2.6c9.7,0.7,19.4,1.3,29.1,1.6c10.5,0.4,21.1,0.4,31.6,0.5 c1.7,0,3.5,0,5.2,0c8.1,0,16.1-0.2,24.2-0.7c10.1-0.6,20.3-1.3,30.4-2.2c2.4-0.2,4.9-0.4,7.3-0.7c2.6-0.3,5.2-0.5,7.8-0.9 c5.5-0.8,11-1.5,16.5-2.4c4.9-0.8,9.8-1.6,14.7-2.5c5-0.9,10.1-2,15-3.2c2.5-0.6,5-1.3,7.5-2s5-1.4,7.5-2.2c2.7-0.8,5.4-1.8,8.1-2.7 c2.4-0.8,4.8-1.8,7.1-2.8c2.2-0.9,4.2-1.9,6.4-2.8c1.5-0.7,2.9-1.4,4.4-2.2c0.8-0.4,1.7-0.8,2.5-1.3l4.2-2.4 c1.1-0.6,2.2-1.4,3.2-2.1s1.9-1.2,2.8-1.9l3.5-2.7c0.7-0.5,1.4-1.1,2.1-1.7s1.3-1.1,1.9-1.7c1.2-1.1,2.3-2.2,3.3-3.3 c2.3-2.5,4.3-5.2,6-8.2c3.4-6.1,4.6-13.2,3.3-20c-0.7-3.2-2-6.3-3.7-9.1c-0.6-1-1.3-2-2-3c1.5-1.5,2.9-2.9,4.4-4.4 c2-2,3.8-4.1,5.7-6.2c1.7-1.8,3.2-3.8,4.8-5.7c0.8-0.9,1.4-1.9,2.1-2.8s1.4-1.8,2.1-2.7c3-4.2,6.1-8.4,8.8-12.8s5.5-8.8,7.9-13.4 c0.8-1.4,1.6-2.8,2.3-4.3l1.7-3.4c1.2-2.3,2.2-4.7,3.3-7c2.1-4.5,4-9.1,5.9-13.6c0.9-2.1,1.7-4.2,2.6-6.3c0.9-2.3,1.8-4.5,2.6-6.8 c1-2.7,1.9-5.3,2.8-8s1.7-5.1,2.4-7.7s1.5-5.2,2.2-7.8c0.6-2.3,1.1-4.6,1.7-6.9c0.3-1.3,0.5-2.6,0.8-3.8s0.5-2.4,0.8-3.6 c0.4-2.5,0.9-5,1.3-7.5c0.4-2.7,0.8-5.3,1.1-8s0.5-5.2,0.8-7.8c0.2-2.4,0.4-4.9,0.6-7.3s0.3-4.9,0.4-7.3 C478.8,100.4,479,95.4,478.8,90.4z M296.2,288.8l0.1,0.4l0,0C296.3,289.1,296.3,289,296.2,288.8z M296.4,289.3L296.4,289.3l0,0.2 l0,0L296.4,289.3z M296.5,289.6L296.5,289.6c0,0.1,0,0.2,0.1,0.4C296.5,289.8,296.5,289.7,296.5,289.6L296.5,289.6z M297.1,290.6 L297.1,290.6l0.4,0.5L297.1,290.6z M385.4,271.1l-5.5,4l-4,2.5c-1.3,0.8-2.6,1.5-3.9,2.2s-2.7,1.5-4,2.2l-4.3,2.1l-2.8,1.2 c-1,0.4-2,0.9-3.1,1.3l-6,2.3l-2.5,0.8c-0.9,0.3-1.9,0.6-2.8,0.9l-6,1.5l-2.1,0.4c-1,0.2-2,0.4-3,0.6l-5.8,0.8 c-1.9,0.3-3.7,0.4-5.6,0.6c-1.5,0.1-3,0.2-4.5,0.3l-4.9,0.1c-0.7,0-1.4-0.1-2.1-0.1l-2-0.1c-1.6-0.2-3.2-0.4-4.8-0.7 c-1.5-0.3-3-0.7-4.4-1.2c-0.8-0.3-1.5-0.6-2.2-0.9l-1-0.5l-0.8-0.6l-0.3-0.3c-0.1-0.1-0.1-0.2-0.2-0.3l-0.2-0.3l-0.1-0.1l-0.1-0.4 v-0.3c0-0.2,0-0.5,0-0.7c0.1-0.5,0.1-1,0.2-1.5s0.2-0.9,0.4-1.4s0.5-1.2,0.8-1.7s0.7-1.3,1.1-1.9c0.7-0.9,1.4-1.8,2.1-2.6 c1-1.1,2.1-2.1,3.2-3.1c1.3-1.1,2.7-2.1,4.1-3s3.1-1.8,4.7-2.7c1-0.6,2.1-1,3.1-1.5c1.3-0.6,2.5-1.1,3.8-1.7s2.4-0.9,3.7-1.4 l1.9-0.5c0.6-0.2,1.3-0.4,1.9-0.6l4.4-1l3.6-0.6c1.1-0.2,2.1-0.3,3.2-0.4s2.3-0.3,3.4-0.4l3.4-0.2l2.5-0.1c0.8,0,1.5-0.1,2.3,0 l4.8,0.1l3.5,0.3c1,0.1,2.1,0.2,3.1,0.4s2.1,0.3,3.1,0.5l3.1,0.6l2.1,0.6c0.8,0.2,1.5,0.4,2.3,0.6l4,1.3c1.1,0.4,2.2,0.8,3.2,1.2 l3.8,1.6l1.1,0.5c0.5,0.3,1.1,0.5,1.6,0.8l0.2,0.2C386,270.7,385.7,270.9,385.4,271.1L385.4,271.1z M3.8,330L3.8,330l0.1,0.1 L3.8,330z" fill="#B3BEBE"/></g></svg>