<svg id="SvgjsSvg1392" width="288" height="288" xmlns="http://www.w3.org/2000/svg" version="1.1" xmlns:xlink="http://www.w3.org/1999/xlink" xmlns:svgjs="http://svgjs.com/svgjs"><defs id="SvgjsDefs1393"></defs><g id="SvgjsG1394"><svg xmlns="http://www.w3.org/2000/svg" viewBox="0 0 1252 298" width="288" height="288"><path fill="#d0e7eb" d="M0 0 C1.81305515 -0.00299889 3.62610904 -0.00687035 5.43916067 -0.01153234 C10.42671589 -0.02181294 15.41420013 -0.01965852 20.40176133 -0.01547697 C25.82603502 -0.01311155 31.25029127 -0.02227881 36.67455834 -0.02996117 C46.18342181 -0.04181108 55.69226609 -0.04617382 65.20113659 -0.04563999 C79.34161954 -0.04484703 93.48207825 -0.05539384 107.62255472 -0.06805556 C134.34778252 -0.09151009 161.07300449 -0.1010624 187.79824135 -0.10580682 C190.74582186 -0.10633054 193.69340236 -0.10685637 196.64098287 -0.10738349 C197.7381844 -0.10757708 197.7381844 -0.10757708 198.85755162 -0.10777458 C215.07200708 -0.11068111 231.2864608 -0.11684021 247.5009151 -0.1234808 C254.17911298 -0.12620432 260.8573109 -0.12883539 267.53550881 -0.13146645 C268.27341639 -0.13175736 269.01132397 -0.13204827 269.77159239 -0.132348 C312.05690763 -0.14897031 354.34222204 -0.16082791 396.62754059 -0.16326141 C398.20990637 -0.16335604 399.79227216 -0.16345105 401.37463794 -0.16354645 C408.51874854 -0.16397418 415.66285915 -0.16437956 422.80696975 -0.16478481 C425.99264801 -0.1649664 429.17832628 -0.1651513 432.36400454 -0.16533687 C433.95849432 -0.1654289 435.5529841 -0.16551929 437.14747389 -0.16560807 C487.55099949 -0.1684216 537.95448509 -0.19014149 588.35799694 -0.22699833 C625.94915043 -0.25448114 663.54029624 -0.28036143 701.13146019 -0.28694344 C702.26710155 -0.28714359 702.26710155 -0.28714359 703.42568516 -0.28734779 C720.04786858 -0.29022046 736.67005183 -0.29163736 753.29223549 -0.291706 C759.24042993 -0.29174568 765.18862436 -0.29190263 771.13681879 -0.29212052 C772.61653545 -0.29217417 774.0962521 -0.29222228 775.57596876 -0.29226485 C799.13066583 -0.29300758 822.68532338 -0.30865549 846.2400081 -0.33187615 C870.63513928 -0.35581936 895.03021082 -0.36153429 919.42535017 -0.34647106 C933.48272488 -0.33832252 947.53993342 -0.34400044 961.59728797 -0.36965191 C970.99398734 -0.38541401 980.39056887 -0.38291581 989.78726544 -0.36574518 C995.13692358 -0.35648094 1000.4862619 -0.35495618 1005.83589498 -0.37571125 C1042.45716517 -0.50863719 1071.16900258 3.01443972 1100.27376842 27.26006222 C1100.88865124 27.73959347 1101.50353405 28.21912472 1102.13704967 28.71318722 C1107.69246173 33.15751686 1111.94498622 38.65039259 1116.27376842 44.26006222 C1116.88349499 45.04252316 1117.49322155 45.82498409 1118.12142467 46.63115597 C1126.88773742 58.47266726 1132.70124248 72.01846993 1136.27376842 86.26006222 C1136.45923229 86.97130245 1136.64469616 87.68254269 1136.83578014 88.41533566 C1138.63147938 96.13315806 1138.67147528 103.878375 1138.64876842 111.76006222 C1138.64795269 112.82304028 1138.64795269 112.82304028 1138.64712048 113.90749264 C1138.60766471 125.09288759 1137.86606308 135.59879234 1134.27376842 146.26006222 C1134.06477917 146.89573116 1133.85578991 147.53140011 1133.64046764 148.18633175 C1128.21697302 164.17243762 1119.68009697 177.91851494 1108.27376842 190.26006222 C1107.56865124 191.05799191 1106.86353405 191.85592159 1106.13704967 192.67803097 C1088.38093736 211.78698994 1060.92371693 223.88908559 1035.02702618 225.45658398 C1031.52320996 225.54303511 1028.02376208 225.57269994 1024.51888561 225.57890987 C1023.20040127 225.5889555 1021.88191692 225.59900112 1020.52347851 225.60935116 C1016.94786886 225.63638001 1013.37229797 225.65171889 1009.79661369 225.66477919 C1006.04499644 225.68053001 1002.29345703 225.70728133 998.54189587 225.73281002 C991.45559001 225.77938811 984.36926917 225.8162329 977.2828896 225.84948289 C967.69448124 225.89504409 958.10616985 225.95583956 948.51784229 226.01573086 C933.43653322 226.10953547 918.35519509 226.18315747 903.27376842 226.26006222 C926.70376842 249.69006222 950.13376842 273.12006222 974.27376842 297.26006222 C970.248152 298.60193436 968.06358206 297.13814339 964.40658092 295.45537472 C963.71293438 295.14530483 963.01928783 294.83523495 962.3046217 294.515769 C959.99828526 293.4816571 957.69862587 292.43349544 955.39876842 291.38506222 C953.77474265 290.65322483 952.15038805 289.92211674 950.52572155 289.19170284 C937.69515721 283.41046463 924.91452812 277.51841829 912.13753796 271.6199255 C900.82279816 266.40138505 889.45356597 261.31546448 878.05617809 256.28038692 C864.58492051 250.326123 851.19189549 244.21012305 837.82845592 238.01787472 C837.09287457 237.67781399 836.35729321 237.33775326 835.5994215 236.98738766 C834.25952191 236.36777503 832.92032507 235.74663817 831.58214855 235.12331295 C830.31268603 234.53648034 829.03871183 233.95931683 827.76058345 233.39160611 C825.92177862 232.55491807 824.10119905 231.67791166 822.29172326 230.77955345 C813.57647221 226.66630999 806.46548714 225.40096409 796.72263432 225.51733112 C795.30538056 225.51238544 793.88813403 225.50480617 792.4709065 225.49486732 C788.60067903 225.47524213 784.73139424 225.49260111 780.86122306 225.5163313 C776.64152665 225.53549452 772.421934 225.51954639 768.20222962 225.50813067 C760.81450047 225.49291106 753.4270517 225.49978232 746.03934193 225.52128696 C735.05316434 225.55313848 724.06718397 225.5503994 713.0809743 225.54049654 C694.59334529 225.52472635 676.10582905 225.53623169 657.61821651 225.562747 C639.30349368 225.58880745 620.98884309 225.60069375 602.67410183 225.59437084 C600.96429496 225.59378073 600.96429496 225.59378073 599.21994655 225.59317869 C593.4304504 225.5910795 587.64095442 225.58868514 581.85145845 225.58614917 C570.0787977 225.58106558 558.30613646 225.57792166 546.53347492 225.57537937 C545.35498408 225.5751244 544.17649324 225.57486943 542.96229056 225.57460673 C514.92092745 225.56903252 486.87957891 225.58319947 458.83822155 225.59990597 C457.61155192 225.60063148 456.38488228 225.60135699 455.12104085 225.60210449 C445.18276741 225.60798381 435.24449401 225.61391361 425.30622065 225.61992564 C396.70132921 225.63719968 368.09643678 225.64964561 339.49154186 225.65947628 C338.26644837 225.65990363 337.04135487 225.66033099 335.77913733 225.66077129 C307.79769733 225.67045363 279.81626229 225.67595358 251.83482075 225.67115879 C250.65805714 225.67096032 249.48129353 225.67076185 248.26887041 225.67055737 C236.51907916 225.66851174 224.76928819 225.6659233 213.01949728 225.66243402 C187.79668186 225.65513862 162.57394528 225.65985533 137.35114368 225.68866578 C118.96093142 225.70956789 100.57075698 225.71715908 82.18053345 225.71081875 C71.26231601 225.70755658 60.34424147 225.71562819 49.42604987 225.73991123 C42.1232511 225.75507056 34.82054317 225.75563581 27.51773728 225.74462492 C23.36327844 225.73878888 19.20908805 225.73911419 15.05465971 225.75747709 C-23.02483525 225.9160743 -54.30486135 218.89509119 -82.41373158 192.01006222 C-103.29699996 170.39830773 -114.17742038 142.8167397 -114.16373158 112.88506222 C-114.16446674 112.18340939 -114.16520191 111.48175655 -114.16595936 110.75884151 C-114.08916371 82.73678497 -104.60090188 59.71705281 -86.72623158 38.26006222 C-86.0069347 37.337738 -86.0069347 37.337738 -85.27310658 36.39678097 C-80.82877693 30.84136891 -75.3359012 26.58884442 -69.72623158 22.26006222 C-68.94377064 21.65033566 -68.1613097 21.04060909 -67.35513783 20.41240597 C-55.50756114 11.64160299 -41.96968263 5.84671688 -27.72623158 2.26006222 C-27.08387178 2.08622601 -26.44151198 1.91238981 -25.77968674 1.73328584 C-17.27075908 -0.28675619 -8.68506904 -0.02079066 0 0 Z " transform="translate(113.726 -.26)" class="colorCFE6EA svgShape"></path><path fill="#d0e7eb" d="M0 0 C271.92 0 543.84 0 824 0 C824 0.33 824 0.66 824 1 C552.08 1 280.16 1 0 1 C0 0.67 0 0.34 0 0 Z " transform="translate(101 226)" class="colorCFE6EA svgShape"></path><path fill="#d0e7eb" d="M0 0 C43.89 0 87.78 0 133 0 C133 0.33 133 0.66 133 1 C89.44 1.33 45.88 1.66 1 2 C0.67 1.34 0.34 0.68 0 0 Z " transform="translate(1018 226)" class="colorCFE6EA svgShape"></path><path fill="#d0e7eb" d="M0 0 C1.98 0 3.96 0 6 0 C6 0.33 6 0.66 6 1 C4.02 1 2.04 1 0 1 C0 0.67 0 0.34 0 0 Z " transform="translate(1153 225)" class="colorCFE6EA svgShape"></path><path fill="#d0e7eb" d="M0 0 C1.98 0 3.96 0 6 0 C6 0.33 6 0.66 6 1 C4.02 1 2.04 1 0 1 C0 0.67 0 0.34 0 0 Z " transform="translate(93 225)" class="colorCFE6EA svgShape"></path><path fill="#cfe7ea" d="M0 0 C1.65 0 3.3 0 5 0 C5 0.33 5 0.66 5 1 C3.35 1 1.7 1 0 1 C0 0.67 0 0.34 0 0 Z " transform="translate(1159 224)" class="colorCFE7EA svgShape"></path><path fill="#d0e7eb" d="M0 0 C1.65 0 3.3 0 5 0 C5 0.33 5 0.66 5 1 C3.35 1 1.7 1 0 1 C0 0.67 0 0.34 0 0 Z " transform="translate(88 224)" class="colorCFE6EA svgShape"></path><path fill="#cfe6eb" d="M0 0 C1 4 1 4 1 4 Z " transform="translate(0 86)" class="colorCFE6EB svgShape"></path><path fill="#d0e7eb" d="M0 0 C1 4 1 4 1 4 Z " transform="translate(1251 86)" class="colorCFE6EA svgShape"></path><path fill="#d0e7eb" d="M0 0 C4 1 4 1 4 1 Z " transform="translate(1162)" class="colorCFE6EA svgShape"></path><path fill="#d0e7eb" d="M0 0 C4 1 4 1 4 1 Z " transform="translate(86)" class="colorCFE6EA svgShape"></path><path fill="#d0e6ea" d="M0 0 C3 1 3 1 3 1 Z " transform="translate(1165 223)" class="colorD0E6EA svgShape"></path><path fill="#d0e7eb" d="M0 0 C3 1 3 1 3 1 Z " transform="translate(84 223)" class="colorD0E7EB svgShape"></path><path fill="#d0e7eb" d="M0 0 C3 1 3 1 3 1 Z " transform="translate(1169 222)" class="colorCFE6EA svgShape"></path><path fill="#cfe7ea" d="M0 0 C3 1 3 1 3 1 Z " transform="translate(80 222)" class="colorCFE7EA svgShape"></path><path fill="#d0e7eb" d="M0 0 C3 1 3 1 3 1 Z " transform="translate(1172 221)" class="colorCFE6EA svgShape"></path><path fill="#d0e6ea" d="M0 0 C3 1 3 1 3 1 Z " transform="translate(77 221)" class="colorD0E6EA svgShape"></path><path fill="#d0e7eb" d="M0 0 C3 1 3 1 3 1 Z " transform="translate(1175 220)" class="colorCFE6EA svgShape"></path><path fill="#d0e7eb" d="M0 0 C3 1 3 1 3 1 Z " transform="translate(74 220)" class="colorD0E7EB svgShape"></path><path fill="#d0e7eb" class="colorCFE6EA svgShape"></path><path fill="#d0e7ea" class="colorD0E7EA svgShape"></path><path fill="#d0e7eb" class="colorCFE6EA svgShape"></path><path fill="#d0e6eb" class="colorD0E6EB svgShape"></path><path fill="#d0e7eb" class="colorCFE6EA svgShape"></path><path fill="#d0e7eb" class="colorCFE6EA svgShape"></path><path fill="#d0e7eb" class="colorCFE6EA svgShape"></path><path fill="#d0e7eb" class="colorCFE6EA svgShape"></path><path fill="#d0e7eb" class="colorCFE6EA svgShape"></path><path fill="#d0e7eb" class="colorD0E7EB svgShape"></path><path fill="#d0e7eb" class="colorCFE6EA svgShape"></path><path fill="#d0e7eb" class="colorCFE6EA svgShape"></path><path fill="#d0e7eb" class="colorCFE6EA svgShape"></path><path fill="#d0e6ea" class="colorD0E6EA svgShape"></path><path fill="#d0e7eb" class="colorCFE6EA svgShape"></path><path fill="#d0e7eb" d="M0 0 C3 1 3 1 3 1 Z " transform="translate(1170 2)" class="colorCFE6EA svgShape"></path><path fill="#d0e7eb" d="M0 0 C3 1 3 1 3 1 Z " transform="translate(79 2)" class="colorCFE6EA svgShape"></path><path fill="#cfe7ea" d="M0 0 C3 1 3 1 3 1 Z " transform="translate(1167 1)" class="colorCFE7EA svgShape"></path><path fill="#d0e7eb" d="M0 0 C3 1 3 1 3 1 Z " transform="translate(82 1)" class="colorCFE6EA svgShape"></path><path fill="#d0e7eb" d="M0 0 C2 1 2 1 2 1 Z " transform="translate(1080 297)" class="colorCFE6EA svgShape"></path><path fill="#d0e6eb" d="M0 0 C2 1 2 1 2 1 Z " transform="translate(1078 296)" class="colorD0E6EB svgShape"></path><path fill="#d0e7eb" d="M0 0 C2 1 2 1 2 1 Z " transform="translate(1076 295)" class="colorD0E7EB svgShape"></path><path fill="#d0e7eb" d="M0 0 C2 1 2 1 2 1 Z " transform="translate(1074 294)" class="colorCFE6EA svgShape"></path><path fill="#d0e7eb" d="M0 0 C2 1 2 1 2 1 Z " transform="translate(1069 292)" class="colorD0E7EB svgShape"></path><path fill="#d0e7eb" d="M0 0 C2 1 2 1 2 1 Z " transform="translate(1067 291)" class="colorCFE6EA svgShape"></path><path fill="#d0e6eb" d="M0 0 C2 1 2 1 2 1 Z " transform="translate(1065 290)" class="colorD0E6EB svgShape"></path><path fill="#d0e7eb" d="M0 0 C2 1 2 1 2 1 Z " transform="translate(1063 289)" class="colorD0E7EB svgShape"></path><path fill="#d0e7eb" d="M0 0 C2 1 2 1 2 1 Z " transform="translate(1058 287)" class="colorD0E7EB svgShape"></path><path fill="#d0e7eb" d="M0 0 C2 1 2 1 2 1 Z " transform="translate(1056 286)" class="colorD0E7EB svgShape"></path><path fill="#d0e7ea" d="M0 0 C2 1 2 1 2 1 Z " transform="translate(1054 285)" class="colorD0E7EA svgShape"></path><path fill="#d0e6ea" d="M0 0 C2 1 2 1 2 1 Z " transform="translate(1052 284)" class="colorD0E6EA svgShape"></path><path fill="#d0e6ea" d="M0 0 C2 1 2 1 2 1 Z " transform="translate(1049 283)" class="colorD0E6EA svgShape"></path><path fill="#cfe7eb" d="M0 0 C2 1 2 1 2 1 Z " transform="translate(1047 282)" class="colorCFE7EB svgShape"></path><path fill="#d0e6ea" d="M0 0 C2 1 2 1 2 1 Z " transform="translate(1045 281)" class="colorD0E6EA svgShape"></path><path fill="#cfe7ea" d="M0 0 C2 1 2 1 2 1 Z " transform="translate(1043 280)" class="colorCFE7EA svgShape"></path><path fill="#cfe7eb" d="M0 0 C2 1 2 1 2 1 Z " transform="translate(1041 279)" class="colorCFE7EB svgShape"></path><path fill="#d0e6eb" d="M0 0 C2 1 2 1 2 1 Z " transform="translate(1038 278)" class="colorD0E6EB svgShape"></path><path fill="#cfe7ea" d="M0 0 C2 1 2 1 2 1 Z " transform="translate(1036 277)" class="colorCFE7EA svgShape"></path><path fill="#d0e7ea" d="M0 0 C2 1 2 1 2 1 Z " transform="translate(1034 276)" class="colorD0E7EA svgShape"></path><path fill="#d0e7ea" d="M0 0 C2 1 2 1 2 1 Z " transform="translate(1032 275)" class="colorD0E7EA svgShape"></path><path fill="#d0e7eb" d="M0 0 C2 1 2 1 2 1 Z " transform="translate(1027 273)" class="colorD0E7EB svgShape"></path><path fill="#d0e6ea" d="M0 0 C2 1 2 1 2 1 Z " transform="translate(1025 272)" class="colorD0E6EA svgShape"></path><path fill="#d0e7eb" d="M0 0 C2 1 2 1 2 1 Z " transform="translate(1023 271)" class="colorD0E7EB svgShape"></path><path fill="#cfe7ea" d="M0 0 C2 1 2 1 2 1 Z " transform="translate(1021 270)" class="colorCFE7EA svgShape"></path><path fill="#cfe7eb" d="M0 0 C2 1 2 1 2 1 Z " transform="translate(1016 268)" class="colorCFE7EB svgShape"></path><path fill="#d0e7eb" d="M0 0 C2 1 2 1 2 1 Z " transform="translate(1014 267)" class="colorD0E7EB svgShape"></path><path fill="#d0e7eb" d="M0 0 C2 1 2 1 2 1 Z " transform="translate(1012 266)" class="colorD0E7EB svgShape"></path><path fill="#cfe6eb" d="M0 0 C2 1 2 1 2 1 Z " transform="translate(1010 265)" class="colorCFE6EB svgShape"></path><path fill="#d0e7eb" d="M0 0 C2 1 2 1 2 1 Z " transform="translate(1007 264)" class="colorCFE6EA svgShape"></path><path fill="#d0e7eb" d="M0 0 C2 1 2 1 2 1 Z " transform="translate(1005 263)" class="colorCFE6EA svgShape"></path><path fill="#d0e7eb" d="M0 0 C2 1 2 1 2 1 Z " transform="translate(1003 262)" class="colorCFE6EA svgShape"></path><path fill="#d0e6eb" d="M0 0 C2 1 2 1 2 1 Z " transform="translate(1001 261)" class="colorD0E6EB svgShape"></path><path fill="#d0e7eb" d="M0 0 C2 1 2 1 2 1 Z " transform="translate(996 259)" class="colorD0E7EB svgShape"></path><path fill="#cfe7ea" d="M0 0 C2 1 2 1 2 1 Z " transform="translate(994 258)" class="colorCFE7EA svgShape"></path><path fill="#d0e7eb" d="M0 0 C2 1 2 1 2 1 Z " transform="translate(992 257)" class="colorD0E7EB svgShape"></path><path fill="#d0e7eb" d="M0 0 C2 1 2 1 2 1 Z " transform="translate(990 256)" class="colorCFE6EA svgShape"></path><path fill="#d0e7eb" d="M0 0 C2 1 2 1 2 1 Z " transform="translate(985 254)" class="colorD0E7EB svgShape"></path><path fill="#d0e7eb" d="M0 0 C2 1 2 1 2 1 Z " transform="translate(983 253)" class="colorD0E7EB svgShape"></path><path fill="#cfe6eb" d="M0 0 C2 1 2 1 2 1 Z " transform="translate(981 252)" class="colorCFE6EB svgShape"></path><path fill="#cfe6eb" d="M0 0 C2 1 2 1 2 1 Z " transform="translate(979 251)" class="colorCFE6EB svgShape"></path><path fill="#d0e7eb" d="M0 0 C2 1 2 1 2 1 Z " transform="translate(976 250)" class="colorD0E7EB svgShape"></path><path fill="#cfe6eb" d="M0 0 C2 1 2 1 2 1 Z " transform="translate(974 249)" class="colorCFE6EB svgShape"></path><path fill="#d0e7eb" d="M0 0 C2 1 2 1 2 1 Z " transform="translate(972 248)" class="colorD0E7EB svgShape"></path><path fill="#d0e7eb" d="M0 0 C2 1 2 1 2 1 Z " transform="translate(970 247)" class="colorCFE6EA svgShape"></path><path fill="#cfe7ea" d="M0 0 C2 1 2 1 2 1 Z " transform="translate(968 246)" class="colorCFE7EA svgShape"></path><path fill="#cfe7ea" d="M0 0 C2 1 2 1 2 1 Z " transform="translate(965 245)" class="colorCFE7EA svgShape"></path><path fill="#d0e7eb" d="M0 0 C2 1 2 1 2 1 Z " transform="translate(963 244)" class="colorD0E7EB svgShape"></path><path fill="#d0e6ea" d="M0 0 C2 1 2 1 2 1 Z " transform="translate(961 243)" class="colorD0E6EA svgShape"></path><path fill="#cfe7eb" d="M0 0 C2 1 2 1 2 1 Z " transform="translate(959 242)" class="colorCFE7EB svgShape"></path><path fill="#d0e7eb" d="M0 0 C2 1 2 1 2 1 Z " transform="translate(954 240)" class="colorD0E7EB svgShape"></path><path fill="#d0e6ea" d="M0 0 C2 1 2 1 2 1 Z " transform="translate(952 239)" class="colorD0E6EA svgShape"></path><path fill="#cfe7ea" d="M0 0 C2 1 2 1 2 1 Z " transform="translate(950 238)" class="colorCFE7EA svgShape"></path><path fill="#d0e7eb" d="M0 0 C2 1 2 1 2 1 Z " transform="translate(948 237)" class="colorCFE6EA svgShape"></path><path fill="#d0e6eb" d="M0 0 C2 1 2 1 2 1 Z " transform="translate(943 235)" class="colorD0E6EB svgShape"></path><path fill="#cfe7eb" d="M0 0 C2 1 2 1 2 1 Z " transform="translate(941 234)" class="colorCFE7EB svgShape"></path><path fill="#d0e7eb" d="M0 0 C2 1 2 1 2 1 Z " transform="translate(939 233)" class="colorCFE6EA svgShape"></path><path fill="#cfe6eb" d="M0 0 C2 1 2 1 2 1 Z " transform="translate(937 232)" class="colorCFE6EB svgShape"></path><path fill="#d0e7ea" d="M0 0 C2 1 2 1 2 1 Z " transform="translate(934 231)" class="colorD0E7EA svgShape"></path><path fill="#d0e6ea" d="M0 0 C2 1 2 1 2 1 Z " transform="translate(932 230)" class="colorD0E6EA svgShape"></path><path fill="#d0e6ea" d="M0 0 C2 1 2 1 2 1 Z " transform="translate(930 229)" class="colorD0E6EA svgShape"></path><path fill="#d0e7eb" d="M0 0 C2 1 2 1 2 1 Z " transform="translate(928 228)" class="colorCFE6EA svgShape"></path><path fill="#cfe6eb" d="M0 0 C2 1 2 1 2 1 Z " transform="translate(1178 219)" class="colorCFE6EB svgShape"></path><path fill="#d0e7eb" d="M0 0 C2 1 2 1 2 1 Z " transform="translate(72 219)" class="colorD0E7EB svgShape"></path><path fill="#d0e7eb" d="M0 0 C2 1 2 1 2 1 Z " transform="translate(1181 218)" class="colorD0E7EB svgShape"></path><path fill="#d0e7eb" d="M0 0 C2 1 2 1 2 1 Z " transform="translate(69 218)" class="colorD0E7EB svgShape"></path><path fill="#d0e7eb" d="M0 0 C2 1 2 1 2 1 Z " transform="translate(1183 217)" class="colorD0E7EB svgShape"></path><path fill="#d0e7eb" d="M0 0 C2 1 2 1 2 1 Z " transform="translate(67 217)" class="colorCFE6EA svgShape"></path><path fill="#d0e7eb" d="M0 0 C2 1 2 1 2 1 Z " transform="translate(1188 215)" class="colorD0E7EB svgShape"></path><path fill="#d0e7eb" d="M0 0 C2 1 2 1 2 1 Z " transform="translate(62 215)" class="colorCFE6EA svgShape"></path><path fill="#d0e7ea" d="M0 0 C2 1 2 1 2 1 Z " transform="translate(1190 214)" class="colorD0E7EA svgShape"></path><path fill="#d0e7eb" d="M0 0 C2 1 2 1 2 1 Z " transform="translate(60 214)" class="colorCFE6EA svgShape"></path><path fill="#d0e7ea" d="M0 0 C2 1 2 1 2 1 Z " transform="translate(1195 211)" class="colorD0E7EA svgShape"></path><path fill="#d0e6ea" d="M0 0 C2 1 2 1 2 1 Z " transform="translate(55 211)" class="colorD0E6EA svgShape"></path><path fill="#d0e7eb" d="M0 0 C2 1 2 1 2 1 Z " transform="translate(1197 210)" class="colorCFE6EA svgShape"></path><path fill="#d0e7eb" d="M0 0 C2 1 2 1 2 1 Z " transform="translate(53 210)" class="colorD0E7EB svgShape"></path><path fill="#cfe6eb" d="M0 0 C2 1 2 1 2 1 Z " transform="translate(1200 208)" class="colorCFE6EB svgShape"></path><path fill="#cfe7ea" d="M0 0 C2 1 2 1 2 1 Z " transform="translate(50 208)" class="colorCFE7EA svgShape"></path><path fill="#d0e7ea" d="M0 0 C2 1 2 1 2 1 Z " transform="translate(1203 206)" class="colorD0E7EA svgShape"></path><path fill="#d0e6ea" d="M0 0 C2 1 2 1 2 1 Z " transform="translate(47 206)" class="colorD0E6EA svgShape"></path><path fill="#cfe7ea" d="M0 0 C2 1 2 1 2 1 Z " transform="translate(1206 204)" class="colorCFE7EA svgShape"></path><path fill="#cfe7eb" d="M0 0 C2 1 2 1 2 1 Z " transform="translate(44 204)" class="colorCFE7EB svgShape"></path><path fill="#d0e7eb" d="M0 0 C2 1 2 1 2 1 Z " transform="translate(1211 200)" class="colorCFE6EA svgShape"></path><path fill="#d0e7eb" d="M0 0 C2 1 2 1 2 1 Z " transform="translate(39 200)" class="colorCFE6EA svgShape"></path><path fill="#d0e7eb" class="colorCFE6EA svgShape"></path><path fill="#cfe7ea" class="colorCFE7EA svgShape"></path><path fill="#d0e7eb" class="colorCFE6EA svgShape"></path><path fill="#cfe7eb" class="colorCFE7EB svgShape"></path><path fill="#d0e7eb" class="colorCFE6EA svgShape"></path><path fill="#d0e7eb" class="colorCFE6EA svgShape"></path><path fill="#d0e7eb" class="colorCFE6EA svgShape"></path><path fill="#d0e7eb" class="colorD0E7EB svgShape"></path><path fill="#d0e7eb" class="colorCFE6EA svgShape"></path><path fill="#d0e7eb" class="colorCFE6EA svgShape"></path><path fill="#d0e6ea" class="colorD0E6EA svgShape"></path><path fill="#d0e7eb" class="colorCFE6EA svgShape"></path><path fill="#d0e7eb" class="colorCFE6EA svgShape"></path><path fill="#d0e7eb" class="colorCFE6EA svgShape"></path><path fill="#d0e6ea" class="colorD0E6EA svgShape"></path><path fill="#d0e7eb" class="colorCFE6EA svgShape"></path><path fill="#cfe7ea" class="colorCFE7EA svgShape"></path><path fill="#d0e7eb" class="colorCFE6EA svgShape"></path><path fill="#d0e6eb" class="colorD0E6EB svgShape"></path><path fill="#d0e7eb" class="colorCFE6EA svgShape"></path><path fill="#d0e7eb" class="colorD0E7EB svgShape"></path><path fill="#d0e7eb" class="colorD0E7EB svgShape"></path><path fill="#d0e7ea" class="colorD0E7EA svgShape"></path><path fill="#d0e7eb" class="colorCFE6EA svgShape"></path><path fill="#d0e6ea" class="colorD0E6EA svgShape"></path><path fill="#d0e7eb" class="colorCFE6EA svgShape"></path><path fill="#d0e7eb" class="colorCFE6EA svgShape"></path><path fill="#d0e7eb" class="colorCFE6EA svgShape"></path><path fill="#d0e7eb" class="colorCFE6EA svgShape"></path><path fill="#d0e7eb" class="colorD0E7EB svgShape"></path><path fill="#d0e7eb" class="colorCFE6EA svgShape"></path><path fill="#cfe6eb" class="colorCFE6EB svgShape"></path><path fill="#d0e7eb" class="colorCFE6EA svgShape"></path><path fill="#d0e7eb" class="colorCFE6EA svgShape"></path><path fill="#d0e6ea" class="colorD0E6EA svgShape"></path><path fill="#d0e7eb" class="colorCFE6EA svgShape"></path><path fill="#d0e7eb" class="colorCFE6EA svgShape"></path><path fill="#d0e7eb" class="colorD0E7EB svgShape"></path><path fill="#d0e6ea" class="colorD0E6EA svgShape"></path><path fill="#d0e7eb" class="colorD0E7EB svgShape"></path><path fill="#d0e6ea" class="colorD0E6EA svgShape"></path><path fill="#d0e7eb" d="M0 0 C2 1 2 1 2 1 Z " transform="translate(1214 26)" class="colorD0E7EB svgShape"></path><path fill="#d0e7eb" d="M0 0 C2 1 2 1 2 1 Z " transform="translate(36 26)" class="colorCFE6EA svgShape"></path><path fill="#d0e7eb" d="M0 0 C2 1 2 1 2 1 Z " transform="translate(42 21)" class="colorCFE6EA svgShape"></path><path fill="#d0e6ea" d="M0 0 C2 1 2 1 2 1 Z " transform="translate(1201 16)" class="colorD0E6EA svgShape"></path><path fill="#d0e7eb" d="M0 0 C2 1 2 1 2 1 Z " transform="translate(49 16)" class="colorD0E7EB svgShape"></path><path fill="#cfe7eb" d="M0 0 C2 1 2 1 2 1 Z " transform="translate(1196 13)" class="colorCFE7EB svgShape"></path><path fill="#d0e7eb" d="M0 0 C2 1 2 1 2 1 Z " transform="translate(54 13)" class="colorD0E7EB svgShape"></path><path fill="#cfe7ea" d="M0 0 C2 1 2 1 2 1 Z " transform="translate(1189 9)" class="colorCFE7EA svgShape"></path><path fill="#d0e7eb" d="M0 0 C2 1 2 1 2 1 Z " transform="translate(61 9)" class="colorCFE6EA svgShape"></path><path fill="#cfe7eb" d="M0 0 C2 1 2 1 2 1 Z " transform="translate(1184 7)" class="colorCFE7EB svgShape"></path><path fill="#cfe7eb" d="M0 0 C2 1 2 1 2 1 Z " transform="translate(66 7)" class="colorCFE7EB svgShape"></path><path fill="#cfe7eb" d="M0 0 C2 1 2 1 2 1 Z " transform="translate(1182 6)" class="colorCFE7EB svgShape"></path><path fill="#d0e7eb" d="M0 0 C2 1 2 1 2 1 Z " transform="translate(68 6)" class="colorCFE6EA svgShape"></path><path fill="#d0e7eb" d="M0 0 C2 1 2 1 2 1 Z " transform="translate(1180 5)" class="colorD0E7EB svgShape"></path><path fill="#d0e7eb" d="M0 0 C2 1 2 1 2 1 Z " transform="translate(70 5)" class="colorD0E7EB svgShape"></path><path fill="#d0e6ea" d="M0 0 C2 1 2 1 2 1 Z " transform="translate(1177 4)" class="colorD0E6EA svgShape"></path><path fill="#d0e7eb" d="M0 0 C2 1 2 1 2 1 Z " transform="translate(73 4)" class="colorD0E7EB svgShape"></path><path fill="#d0e7eb" d="M0 0 C2 1 2 1 2 1 Z " transform="translate(1174 3)" class="colorD0E7EB svgShape"></path><path fill="#d0e6eb" d="M0 0 C2 1 2 1 2 1 Z " transform="translate(76 3)" class="colorD0E6EB svgShape"></path><path fill="#d0e7eb" class="colorD0E7EB svgShape"></path><path fill="#d0e7eb" class="colorD0E7EB svgShape"></path><path fill="#d0e7eb" class="colorD0E7EB svgShape"></path><path fill="#d0e7eb" class="colorD0E7EB svgShape"></path><path fill="#d0e7eb" class="colorD0E7EB svgShape"></path><path fill="#d0e7eb" class="colorD0E7EB svgShape"></path><path fill="#d0e7eb" class="colorD0E7EB svgShape"></path><path fill="#d0e7eb" class="colorD0E7EB svgShape"></path><path fill="#d0e7eb" class="colorD0E7EB svgShape"></path><path fill="#d0e7eb" class="colorD0E7EB svgShape"></path><path fill="#d0e7eb" class="colorD0E7EB svgShape"></path><path fill="#d0e7eb" class="colorD0E7EB svgShape"></path><path fill="#d0e7eb" class="colorD0E7EB svgShape"></path><path fill="#d0e7eb" class="colorD0E7EB svgShape"></path><path fill="#d0e7eb" class="colorD0E7EB svgShape"></path><path fill="#d0e7eb" class="colorD0E7EB svgShape"></path><path fill="#d0e7eb" class="colorD0E7EB svgShape"></path><path fill="#d0e7eb" class="colorD0E7EB svgShape"></path><path fill="#d0e7eb" class="colorD0E7EB svgShape"></path><path fill="#d0e7eb" class="colorCFE6EA svgShape"></path><path fill="#d0e7eb" class="colorCFE6EA svgShape"></path><path fill="#d0e7eb" class="colorD0E7EB svgShape"></path><path fill="#d0e7eb" class="colorD0E7EB svgShape"></path><path fill="#d0e7eb" class="colorD0E7EB svgShape"></path><path fill="#d0e7eb" class="colorD0E7EB svgShape"></path><path fill="#d0e7eb" class="colorD0E7EB svgShape"></path><path fill="#d0e7eb" class="colorD0E7EB svgShape"></path><path fill="#d0e7eb" class="colorD0E7EB svgShape"></path><path fill="#d0e7eb" class="colorCFE6EA svgShape"></path><path fill="#d0e7eb" class="colorD0E7EB svgShape"></path><path fill="#d0e7eb" class="colorD0E7EB svgShape"></path><path fill="#d0e7eb" class="colorD0E7EB svgShape"></path><path fill="#d0e7eb" class="colorD0E7EB svgShape"></path><path fill="#d0e7eb" class="colorD0E7EB svgShape"></path><path fill="#d0e7eb" class="colorD0E7EB svgShape"></path><path fill="#d0e7eb" class="colorD0E7EB svgShape"></path><path fill="#d0e7eb" class="colorD0E7EB svgShape"></path><path fill="#d0e7eb" class="colorD0E7EB svgShape"></path><path fill="#d0e7eb" class="colorD0E7EB svgShape"></path><path fill="#d0e7eb" class="colorCFE6EA svgShape"></path><path fill="#d0e7eb" class="colorCFE6EA svgShape"></path><path fill="#d0e7eb" class="colorD0E7EB svgShape"></path><path fill="#d0e7eb" class="colorD0E7EB svgShape"></path><path fill="#d0e7eb" class="colorD0E7EB svgShape"></path><path fill="#d0e7eb" class="colorD0E7EB svgShape"></path><path fill="#d0e7eb" class="colorD0E7EB svgShape"></path><path fill="#d0e7eb" class="colorD0E7EB svgShape"></path><path fill="#cfe7eb" class="colorCFE7EB svgShape"></path><path fill="#d0e7eb" class="colorCFE6EA svgShape"></path><path fill="#d0e7eb" class="colorCFE6EA svgShape"></path><path fill="#d0e7eb" class="colorCFE6EA svgShape"></path><path fill="#d0e7eb" class="colorCFE6EA svgShape"></path><path fill="#d0e7eb" class="colorD0E7EB svgShape"></path><path fill="#d0e7eb" class="colorD0E7EB svgShape"></path><path fill="#d0e7eb" class="colorD0E7EB svgShape"></path><path fill="#d0e7eb" class="colorD0E7EB svgShape"></path><path fill="#d0e7eb" class="colorD0E7EB svgShape"></path><path fill="#d0e7eb" class="colorD0E7EB svgShape"></path><path fill="#d0e7eb" class="colorD0E7EB svgShape"></path><path fill="#d0e7eb" class="colorD0E7EB svgShape"></path><path fill="#d0e7eb" class="colorCFE6EA svgShape"></path><path fill="#d0e7eb" class="colorD0E7EB svgShape"></path><path fill="#d0e6eb" class="colorD0E6EB svgShape"></path><path fill="#d0e7eb" class="colorD0E7EB svgShape"></path><path fill="#d0e7eb" class="colorD0E7EB svgShape"></path><path fill="#d0e7eb" class="colorD0E7EB svgShape"></path><path fill="#d0e7eb" class="colorD0E7EB svgShape"></path><path fill="#d0e7eb" class="colorD0E7EB svgShape"></path><path fill="#d0e7eb" class="colorD0E7EB svgShape"></path><path fill="#d0e7eb" class="colorCFE6EA svgShape"></path><path fill="#d0e7eb" class="colorCFE6EA svgShape"></path><path fill="#d0e7eb" class="colorD0E7EB svgShape"></path><path fill="#d0e7eb" class="colorD0E7EB svgShape"></path><path fill="#d0e7eb" class="colorD0E7EB svgShape"></path><path fill="#d0e7eb" class="colorD0E7EB svgShape"></path><path fill="#d0e7eb" class="colorD0E7EB svgShape"></path><path fill="#d0e7eb" class="colorD0E7EB svgShape"></path><path fill="#d0e6eb" class="colorD0E6EB svgShape"></path><path fill="#d0e7eb" class="colorD0E7EB svgShape"></path><path fill="#cfe7ea" class="colorCFE7EA svgShape"></path><path fill="#d0e6eb" class="colorD0E6EB svgShape"></path><path fill="#d0e7eb" class="colorD0E7EB svgShape"></path><path fill="#d0e7eb" class="colorD0E7EB svgShape"></path><path fill="#cfe7ea" class="colorCFE7EA svgShape"></path><path fill="#d0e7eb" class="colorD0E7EB svgShape"></path><path fill="#d0e7eb" class="colorD0E7EB svgShape"></path><path fill="#d0e7eb" class="colorD0E7EB svgShape"></path><path fill="#d0e7eb" class="colorD0E7EB svgShape"></path><path fill="#d0e7eb" class="colorD0E7EB svgShape"></path><path fill="#d0e7eb" class="colorD0E7EB svgShape"></path><path fill="#d0e6ea" class="colorD0E6EA svgShape"></path><path fill="#d0e6ea" class="colorD0E6EA svgShape"></path><path fill="#d0e7ea" class="colorD0E7EA svgShape"></path><path fill="#d0e7eb" class="colorD0E7EB svgShape"></path><path fill="#d0e7eb" class="colorCFE6EA svgShape"></path><path fill="#d0e7ea" class="colorD0E7EA svgShape"></path><path fill="#d0e7eb" class="colorCFE6EA svgShape"></path><path fill="#d0e7eb" class="colorCFE6EA svgShape"></path><path fill="#d0e7eb" class="colorD0E7EB svgShape"></path><path fill="#d0e6ea" class="colorD0E6EA svgShape"></path><path fill="#d0e7eb" class="colorCFE6EA svgShape"></path><path fill="#d0e7eb" class="colorD0E7EB svgShape"></path><path fill="#d0e7eb" class="colorCFE6EA svgShape"></path><path fill="#cfe7eb" class="colorCFE7EB svgShape"></path><path fill="#d0e7eb" class="colorCFE6EA svgShape"></path><path fill="#cfe7eb" class="colorCFE7EB svgShape"></path><path fill="#d0e7eb" class="colorCFE6EA svgShape"></path><path fill="#d0e7eb" class="colorD0E7EB svgShape"></path><path fill="#d0e7eb" class="colorCFE6EA svgShape"></path><path fill="#d0e6ea" class="colorD0E6EA svgShape"></path><path fill="#d0e7eb" class="colorD0E7EB svgShape"></path><path fill="#d0e7eb" class="colorD0E7EB svgShape"></path><path fill="#d0e7eb" class="colorCFE6EA svgShape"></path><path fill="#d0e7eb" class="colorD0E7EB svgShape"></path><path fill="#d0e7eb" class="colorCFE6EA svgShape"></path><path fill="#d0e7eb" class="colorD0E7EB svgShape"></path><path fill="#d0e7eb" class="colorD0E7EB svgShape"></path><path fill="#d0e7eb" class="colorCFE6EA svgShape"></path><path fill="#d0e7eb" class="colorCFE6EA svgShape"></path><path fill="#d0e7eb" class="colorD0E7EB svgShape"></path><path fill="#d0e7eb" class="colorCFE6EA svgShape"></path><path fill="#cfe7eb" class="colorCFE7EB svgShape"></path><path fill="#d0e7eb" class="colorD0E7EB svgShape"></path><path fill="#d0e7eb" class="colorD0E7EB svgShape"></path><path fill="#d0e7eb" class="colorD0E7EB svgShape"></path><path fill="#d0e7ea" class="colorD0E7EA svgShape"></path><path fill="#d0e7eb" class="colorCFE6EA svgShape"></path><path fill="#d0e7eb" class="colorD0E7EB svgShape"></path><path fill="#d0e7eb" class="colorD0E7EB svgShape"></path><path fill="#d0e7ea" class="colorD0E7EA svgShape"></path><path fill="#d0e7eb" class="colorCFE6EA svgShape"></path><path fill="#cfe7ea" class="colorCFE7EA svgShape"></path><path fill="#d0e7eb" class="colorD0E7EB svgShape"></path><path fill="#d0e7eb" class="colorCFE6EA svgShape"></path><path fill="#d0e7eb" class="colorCFE6EA svgShape"></path><path fill="#d0e7eb" class="colorD0E7EB svgShape"></path><path fill="#d0e6ea" class="colorD0E6EA svgShape"></path><path fill="#d0e7eb" class="colorCFE6EA svgShape"></path><path fill="#d0e7eb" class="colorD0E7EB svgShape"></path><path fill="#d0e7eb" class="colorCFE6EA svgShape"></path><path fill="#d0e7eb" class="colorD0E7EB svgShape"></path><path fill="#d0e7eb" class="colorD0E7EB svgShape"></path><path fill="#d0e7eb" class="colorCFE6EA svgShape"></path><path fill="#cfe7eb" class="colorCFE7EB svgShape"></path><path fill="#d0e7eb" class="colorCFE6EA svgShape"></path><path fill="#d0e7ea" class="colorD0E7EA svgShape"></path><path fill="#d0e7eb" class="colorD0E7EB svgShape"></path><path fill="#d0e7ea" class="colorD0E7EA svgShape"></path><path fill="#d0e7eb" class="colorD0E7EB svgShape"></path><path fill="#d0e7eb" class="colorD0E7EB svgShape"></path><path fill="#d0e7eb" class="colorD0E7EB svgShape"></path><path fill="#d0e6ea" class="colorD0E6EA svgShape"></path><path fill="#d0e7eb" class="colorCFE6EA svgShape"></path><path fill="#d0e7eb" class="colorD0E7EB svgShape"></path><path fill="#d0e7eb" class="colorCFE6EA svgShape"></path><path fill="#d0e7eb" class="colorD0E7EB svgShape"></path><path fill="#d0e7eb" class="colorCFE6EA svgShape"></path><path fill="#cfe7eb" class="colorCFE7EB svgShape"></path><path fill="#d0e7eb" class="colorCFE6EA svgShape"></path><path fill="#d0e7eb" class="colorD0E7EB svgShape"></path><path fill="#d0e7eb" class="colorCFE6EA svgShape"></path><path fill="#d0e7eb" class="colorD0E7EB svgShape"></path><path fill="#d0e7eb" class="colorD0E7EB svgShape"></path><path fill="#cfe7eb" class="colorCFE7EB svgShape"></path><path fill="#d0e7eb" class="colorD0E7EB svgShape"></path><path fill="#d0e7eb" class="colorD0E7EB svgShape"></path><path fill="#d0e7eb" class="colorD0E7EB svgShape"></path><path fill="#d0e7eb" class="colorD0E7EB svgShape"></path><path fill="#d0e7eb" class="colorCFE6EA svgShape"></path><path fill="#d0e7eb" class="colorCFE6EA svgShape"></path><path fill="#d0e7eb" class="colorD0E7EB svgShape"></path><path fill="#d0e7ea" class="colorD0E7EA svgShape"></path><path fill="#d0e7eb" class="colorD0E7EB svgShape"></path><path fill="#d0e7eb" class="colorD0E7EB svgShape"></path><path fill="#d0e7eb" class="colorD0E7EB svgShape"></path><path fill="#d0e7eb" class="colorD0E7EB svgShape"></path><path fill="#d0e7eb" class="colorD0E7EB svgShape"></path><path fill="#d0e7ea" class="colorD0E7EA svgShape"></path><path fill="#d0e7ea" class="colorD0E7EA svgShape"></path><path fill="#d0e7ea" class="colorD0E7EA svgShape"></path><path fill="#d0e7ea" class="colorD0E7EA svgShape"></path><path fill="#cfe7eb" class="colorCFE7EB svgShape"></path><path fill="#d0e7eb" class="colorD0E7EB svgShape"></path><path fill="#d0e7eb" class="colorD0E7EB svgShape"></path><path fill="#d0e7eb" class="colorD0E7EB svgShape"></path><path fill="#d0e7eb" class="colorD0E7EB svgShape"></path><path fill="#d0e7eb" class="colorD0E7EB svgShape"></path><path fill="#d0e7eb" class="colorD0E7EB svgShape"></path><path fill="#d0e7eb" class="colorD0E7EB svgShape"></path><path fill="#d0e7eb" class="colorD0E7EB svgShape"></path><path fill="#d0e7eb" class="colorD0E7EB svgShape"></path><path fill="#d0e7eb" class="colorD0E7EB svgShape"></path><path fill="#d0e7eb" class="colorD0E7EB svgShape"></path><path fill="#d0e7eb" class="colorD0E7EB svgShape"></path><path fill="#d0e7eb" class="colorD0E7EB svgShape"></path><path fill="#d0e7ea" class="colorD0E7EA svgShape"></path><path fill="#d0e7eb" class="colorD0E7EB svgShape"></path><path fill="#d0e7eb" class="colorD0E7EB svgShape"></path><path fill="#d0e7eb" class="colorD0E7EB svgShape"></path><path fill="#d0e7eb" class="colorD0E7EB svgShape"></path><path fill="#d0e6ea" class="colorD0E6EA svgShape"></path><path fill="#d0e7eb" class="colorD0E7EB svgShape"></path><path fill="#d0e6eb" class="colorD0E6EB svgShape"></path><path fill="#d0e7eb" class="colorD0E7EB svgShape"></path><path fill="#d0e7eb" class="colorD0E7EB svgShape"></path><path fill="#d0e7ea" class="colorD0E7EA svgShape"></path><path fill="#d0e7eb" class="colorD0E7EB svgShape"></path><path fill="#d0e7eb" class="colorD0E7EB svgShape"></path><path fill="#d0e7eb" class="colorD0E7EB svgShape"></path><path fill="#d0e7eb" class="colorD0E7EB svgShape"></path><path fill="#d0e7eb" class="colorCFE6EA svgShape"></path><path fill="#d0e7eb" class="colorD0E7EB svgShape"></path><path fill="#cfe6eb" class="colorCFE6EB svgShape"></path><path fill="#d0e7eb" class="colorD0E7EB svgShape"></path><path fill="#d0e7eb" class="colorD0E7EB svgShape"></path><path fill="#d0e7eb" class="colorD0E7EB svgShape"></path><path fill="#d0e7eb" class="colorD0E7EB svgShape"></path></svg></g></svg>