<svg id="SvgjsSvg1001" width="288" height="288" xmlns="http://www.w3.org/2000/svg" version="1.1" xmlns:xlink="http://www.w3.org/1999/xlink" xmlns:svgjs="http://svgjs.com/svgjs"><defs id="SvgjsDefs1002"></defs><g id="SvgjsG1008"><svg xmlns="http://www.w3.org/2000/svg" viewBox="0 0 1196 285" width="288" height="288"><path fill="#e1ebe6" d="M0 0 C1.73581588 -0.0026955 3.47163059 -0.00626453 5.20744309 -0.01062447 C9.98051598 -0.02007128 14.75351243 -0.01708543 19.52658905 -0.01206893 C24.7182974 -0.00880087 29.90998947 -0.01708603 35.10169262 -0.02388728 C44.20210923 -0.03419502 53.30250457 -0.03702972 62.40292645 -0.03497505 C75.93583924 -0.03192708 89.46872845 -0.04024455 103.00163666 -0.0507243 C128.57759674 -0.07007643 154.15354504 -0.07569423 179.72951055 -0.07683842 C182.5500726 -0.07696792 185.37063464 -0.07710379 188.19119668 -0.07724524 C188.8911399 -0.07727924 189.59108312 -0.07731325 190.31223674 -0.07734829 C205.82785388 -0.07816546 221.34346939 -0.08254611 236.85908567 -0.08755693 C243.2493571 -0.08961367 249.63962856 -0.09159374 256.02990001 -0.09358943 C256.73598804 -0.0938106 257.44207607 -0.09403178 258.16956071 -0.09425966 C298.62938993 -0.10690701 339.08921808 -0.11515799 379.54904938 -0.11424255 C381.06302052 -0.114211 382.57699166 -0.11417952 384.0909628 -0.11414814 C390.92630181 -0.11400137 397.76164082 -0.11382503 404.59697983 -0.11364037 C407.6449824 -0.11355812 410.69298497 -0.11347783 413.74098754 -0.11339774 C415.26656748 -0.11335695 416.79214741 -0.11331491 418.31772734 -0.11327162 C466.55193105 -0.11191131 514.78610539 -0.126543 563.02030087 -0.15435219 C575.17197855 -0.16135437 587.32365625 -0.16829336 599.47533417 -0.17488098 C600.59771329 -0.1754896 600.59771329 -0.1754896 601.74276674 -0.17611052 C624.80994031 -0.18854329 647.87711147 -0.19607219 670.94428825 -0.19859695 C671.66866369 -0.19867686 672.39303912 -0.19875676 673.13936532 -0.19883908 C689.04232667 -0.20054575 704.94528788 -0.20106798 720.8482493 -0.20049833 C726.53886015 -0.20030536 732.229471 -0.20020127 737.92008184 -0.20014087 C739.33573213 -0.20012504 740.75138241 -0.20010463 742.16703269 -0.20007962 C764.70995402 -0.1997272 787.25285018 -0.21111411 809.79576429 -0.22838725 C833.1381122 -0.24618201 856.48041603 -0.24932225 879.82277108 -0.235763 C893.27663987 -0.22836928 906.73039846 -0.23204451 920.18425559 -0.25164768 C929.17357131 -0.26363922 938.16280713 -0.26106573 947.15211917 -0.24670668 C952.27234739 -0.23893681 957.39236221 -0.23741189 962.51257546 -0.25362138 C967.17841135 -0.26826281 971.84385768 -0.26420898 976.50967672 -0.24577365 C978.17955887 -0.24235481 979.84947216 -0.24550931 981.51932245 -0.25637607 C1011.30912878 -0.43712173 1037.19201909 11.68660062 1058.48099422 32.31976891 C1080.0691245 53.94571781 1088.31944313 81.35862682 1088.29788876 111.30023766 C1088.23350693 121.45007693 1087.30888767 130.6353161 1083.98099422 140.25726891 C1083.76668758 140.88939293 1083.55238094 141.52151695 1083.33158016 142.17279625 C1077.98971136 157.61911703 1069.94829173 170.25318109 1058.98099422 182.25726891 C1058.32486141 182.99590172 1057.6687286 183.73453453 1056.99271297 184.49555016 C1040.60079482 202.01068326 1014.79454301 214.06977973 990.85520537 215.43560661 C987.36619264 215.49645244 983.88256414 215.49567573 980.39309788 215.47149563 C979.04418732 215.46952101 977.69527522 215.46844275 976.34636325 215.46817115 C972.65202646 215.46489943 968.95783417 215.44912623 965.26354283 215.43131736 C961.23923348 215.41422701 957.21490615 215.4091091 953.19056833 215.40255207 C946.14072251 215.38951321 939.09092703 215.36924695 932.04111385 215.34426498 C920.56930032 215.30377274 909.09747523 215.27801926 897.62561703 215.25403404 C893.61100865 215.24546655 889.59640055 215.23677244 885.58179259 215.2280091 C884.57294685 215.22581085 883.5641011 215.22361259 882.52468427 215.22134772 C875.2018325 215.20516818 867.87898755 215.18689768 860.55614305 215.16772664 C831.01052817 215.09073438 801.46497306 215.04160943 771.91927209 215.01338594 C768.56286019 215.01017445 765.20644838 215.00688326 761.85003658 215.00357086 C750.50426951 214.99240703 739.15850209 214.98165353 727.81273437 214.97118747 C726.67721717 214.97013971 725.54169997 214.96909194 724.37177317 214.96801243 C723.2337007 214.96696249 722.09562824 214.96591255 720.92306873 214.9648308 C718.61555431 214.96270132 716.30803989 214.96057131 714.00052547 214.95844078 C712.27942462 214.95685238 712.27942462 214.95685238 710.52355406 214.95523188 C692.90210656 214.93891471 675.28066098 214.92121707 657.65921688 214.90155602 C655.89975304 214.89961526 655.89975304 214.89961526 654.10474448 214.89763531 C616.12029349 214.85537409 578.1361516 214.76298472 540.15186231 214.64656365 C501.06198343 214.52706304 461.97238713 214.46422022 422.88231745 214.46963419 C417.3505162 214.47036152 411.81871515 214.47041827 406.28691387 214.47005081 C405.19833115 214.46999477 404.10974842 214.46993873 402.98817834 214.46988099 C385.53444288 214.46727998 368.08141126 214.40522137 350.6279047 214.32000408 C333.04898692 214.23537593 315.47084844 214.2131483 297.89176495 214.25294168 C288.38379561 214.27274927 278.87779012 214.26567845 269.37013149 214.18031693 C218.81979929 212.50154533 218.81979929 212.50154533 172.40496904 229.93988373 C165.70423115 234.22269654 158.46428505 237.23164184 151.15958305 240.32716424 C147.4265466 241.92090905 143.72059624 243.57584304 140.01224422 245.22601891 C139.17822079 245.59597984 138.34419735 245.96594078 137.48490047 246.34711266 C128.34744371 250.41825676 119.2704005 254.6206643 110.1894598 258.81592369 C96.65882534 265.06411265 83.06235764 271.15493719 69.42630672 277.16937828 C68.70160686 277.48951897 67.97690701 277.80965965 67.23024654 278.13950157 C65.8891122 278.73168873 64.54741352 279.32260041 63.20500851 279.91190147 C60.31055926 281.18969345 57.50618482 282.5139284 54.72098446 284.01947594 C51.98099422 285.25726891 51.98099422 285.25726891 48.98099422 284.25726891 C71.42099422 261.81726891 93.86099422 239.37726891 116.98099422 216.25726891 C107.74486141 216.23148766 98.5087286 216.20570641 88.99271297 216.17914391 C83.10922879 216.15395024 77.2257765 216.12775804 71.34232235 216.09711266 C62.02274521 216.04875233 52.70327407 216.00423895 43.38358212 215.98627281 C36.59293846 215.97316322 29.80251326 215.94596556 23.01199275 215.90265584 C19.42477519 215.88024734 15.83782494 215.86434558 12.2505312 215.86538506 C-6.65246888 215.86501869 -25.21403674 215.52738254 -42.76900578 207.63226891 C-43.93411686 207.1224044 -43.93411686 207.1224044 -45.12276554 206.60223961 C-71.61965872 194.56510282 -91.79032268 172.2089654 -102.29195499 145.23871422 C-111.71746458 119.55119381 -111.1742093 88.85228321 -99.79586124 63.88397789 C-87.00774579 37.08292219 -65.90231307 16.22822018 -37.94088078 5.64398766 C-34.33423372 4.37315473 -30.71649879 3.23984709 -27.01900578 2.25726891 C-26.05543248 1.99816544 -26.05543248 1.99816544 -25.07239306 1.73382755 C-16.77360579 -0.21613475 -8.4661751 -0.02270603 0 0 Z " transform="translate(108.019 -.257)" class="colorBACEC6 svgShape"></path><path fill="#e1ebe6" d="M0 0 C260.37 0 520.74 0 789 0 C789 0.33 789 0.66 789 1 C528.63 1 268.26 1 0 1 C0 0.67 0 0.34 0 0 Z " transform="translate(312 216)" class="colorBACEC6 svgShape"></path><path fill="#e1ebe6" d="M0 0 C42.57 0 85.14 0 129 0 C127 2 127 2 124.77049828 2.23047829 C123.83580019 2.22126036 122.9011021 2.21204243 121.93807983 2.20254517 C120.86673294 2.19688034 119.79538605 2.19121552 118.6915741 2.18537903 C117.51122086 2.16883774 116.33086761 2.15229645 115.11474609 2.13525391 C113.25625282 2.12106163 113.25625282 2.12106163 111.36021423 2.10658264 C107.95739524 2.07862291 104.55489157 2.04170393 101.15221739 2.00085878 C97.59817503 1.96029563 94.04404005 1.93110548 90.48989868 1.90072632 C83.75729475 1.84144196 77.02483752 1.77187968 70.29237235 1.69865549 C62.62869827 1.61580137 54.96493124 1.54435818 47.30113482 1.47388959 C31.53395154 1.32865385 15.76694717 1.16903579 0 1 C0 0.67 0 0.34 0 0 Z " transform="translate(95 216)" class="colorBACEC6 svgShape"></path><path fill="#e1ebe6" d="M0 0 C1.98 0 3.96 0 6 0 C6 0.33 6 0.66 6 1 C4.02 1 2.04 1 0 1 C0 0.67 0 0.34 0 0 Z " transform="translate(1102 215)" class="colorBACEC6 svgShape"></path><path fill="#e1ebe6" d="M0 0 C1.98 0 3.96 0 6 0 C6 0.33 6 0.66 6 1 C4.02 1 2.04 1 0 1 C0 0.67 0 0.34 0 0 Z " transform="translate(88 215)" class="colorBACEC6 svgShape"></path><path fill="#e1ebe6" d="M0 0 C4 1 4 1 4 1 Z " transform="translate(1109 214)" class="colorBACEC6 svgShape"></path><path fill="#bacec7" d="M0 0 C4 1 4 1 4 1 Z " transform="translate(83 214)" class="colorBACEC7 svgShape"></path><path fill="#bacfc7" d="M0 0 C4 1 4 1 4 1 Z " transform="translate(1113 213)" class="colorBACFC7 svgShape"></path><path fill="#bbcec6" d="M0 0 C4 1 4 1 4 1 Z " transform="translate(79 213)" class="colorBBCEC6 svgShape"></path><path fill="#e1ebe6" d="M0 0 C1 4 1 4 1 4 Z " transform="translate(1194 133)" class="colorBACEC6 svgShape"></path><path fill="#e1ebe6" d="M0 0 C1 4 1 4 1 4 Z " transform="translate(1 133)" class="colorBACEC6 svgShape"></path><path fill="#e1ebe6" d="M0 0 C1 4 1 4 1 4 Z " transform="translate(1195 129)" class="colorBACEC6 svgShape"></path><path fill="#e1ebe6" d="M0 0 C1 4 1 4 1 4 Z " transform="translate(0 129)" class="colorBACEC6 svgShape"></path><path fill="#bacfc6" d="M0 0 C3 1 3 1 3 1 Z " transform="translate(1117 212)" class="colorBACFC6 svgShape"></path><path fill="#bbcec7" d="M0 0 C3 1 3 1 3 1 Z " transform="translate(76 212)" class="colorBBCEC7 svgShape"></path><path fill="#e1ebe6" class="colorBACEC6 svgShape"></path><path fill="#e1ebe6" class="colorBACEC6 svgShape"></path><path fill="#e1ebe6" class="colorBACEC6 svgShape"></path><path fill="#bacec7" class="colorBACEC7 svgShape"></path><path fill="#e1ebe6" class="colorBACEC6 svgShape"></path><path fill="#bbcec7" class="colorBBCEC7 svgShape"></path><path fill="#e1ebe6" class="colorBACEC6 svgShape"></path><path fill="#bbcec7" class="colorBBCEC7 svgShape"></path><path fill="#e1ebe6" class="colorBACEC6 svgShape"></path><path fill="#bbcfc7" class="colorBBCFC7 svgShape"></path><path fill="#e1ebe6" class="colorBACEC6 svgShape"></path><path fill="#e1ebe6" class="colorBACEC6 svgShape"></path><path fill="#bacfc6" d="M0 0 C3 1 3 1 3 1 Z " transform="translate(1115 1)" class="colorBACFC6 svgShape"></path><path fill="#e1ebe6" d="M0 0 C3 1 3 1 3 1 Z " transform="translate(78 1)" class="colorBACEC6 svgShape"></path><path fill="#e1ebe6" d="M0 0 C3 1 3 1 3 1 Z " transform="translate(1111)" class="colorBACEC6 svgShape"></path><path fill="#e1ebe6" d="M0 0 C3 1 3 1 3 1 Z " transform="translate(82)" class="colorBACEC6 svgShape"></path><path fill="#bacfc7" d="M0 0 C2 1 2 1 2 1 Z " transform="translate(162 284)" class="colorBACFC7 svgShape"></path><path fill="#bbcec7" d="M0 0 C2 1 2 1 2 1 Z " transform="translate(164 283)" class="colorBBCEC7 svgShape"></path><path fill="#bacfc7" d="M0 0 C2 1 2 1 2 1 Z " transform="translate(166 282)" class="colorBACFC7 svgShape"></path><path fill="#bbcec6" d="M0 0 C2 1 2 1 2 1 Z " transform="translate(169 281)" class="colorBBCEC6 svgShape"></path><path fill="#bacfc7" d="M0 0 C2 1 2 1 2 1 Z " transform="translate(171 280)" class="colorBACFC7 svgShape"></path><path fill="#bbcfc7" d="M0 0 C2 1 2 1 2 1 Z " transform="translate(173 279)" class="colorBBCFC7 svgShape"></path><path fill="#bbcfc7" d="M0 0 C2 1 2 1 2 1 Z " transform="translate(175 278)" class="colorBBCFC7 svgShape"></path><path fill="#bbcfc6" d="M0 0 C2 1 2 1 2 1 Z " transform="translate(177 277)" class="colorBBCFC6 svgShape"></path><path fill="#e1ebe6" d="M0 0 C2 1 2 1 2 1 Z " transform="translate(180 276)" class="colorBACEC6 svgShape"></path><path fill="#bbcfc7" d="M0 0 C2 1 2 1 2 1 Z " transform="translate(182 275)" class="colorBBCFC7 svgShape"></path><path fill="#e1ebe6" d="M0 0 C2 1 2 1 2 1 Z " transform="translate(184 274)" class="colorBACEC6 svgShape"></path><path fill="#bbcfc7" d="M0 0 C2 1 2 1 2 1 Z " transform="translate(186 273)" class="colorBBCFC7 svgShape"></path><path fill="#bbcfc7" d="M0 0 C2 1 2 1 2 1 Z " transform="translate(191 271)" class="colorBBCFC7 svgShape"></path><path fill="#e1ebe6" d="M0 0 C2 1 2 1 2 1 Z " transform="translate(193 270)" class="colorBACEC6 svgShape"></path><path fill="#bbcec6" d="M0 0 C2 1 2 1 2 1 Z " transform="translate(195 269)" class="colorBBCEC6 svgShape"></path><path fill="#bbcfc6" d="M0 0 C2 1 2 1 2 1 Z " transform="translate(197 268)" class="colorBBCFC6 svgShape"></path><path fill="#bbcec7" d="M0 0 C2 1 2 1 2 1 Z " transform="translate(202 266)" class="colorBBCEC7 svgShape"></path><path fill="#e1ebe6" d="M0 0 C2 1 2 1 2 1 Z " transform="translate(204 265)" class="colorBACEC6 svgShape"></path><path fill="#bacfc6" d="M0 0 C2 1 2 1 2 1 Z " transform="translate(206 264)" class="colorBACFC6 svgShape"></path><path fill="#e1ebe6" d="M0 0 C2 1 2 1 2 1 Z " transform="translate(208 263)" class="colorBACEC6 svgShape"></path><path fill="#bbcfc7" d="M0 0 C2 1 2 1 2 1 Z " transform="translate(211 262)" class="colorBBCFC7 svgShape"></path><path fill="#bacfc6" d="M0 0 C2 1 2 1 2 1 Z " transform="translate(213 261)" class="colorBACFC6 svgShape"></path><path fill="#bbcfc7" d="M0 0 C2 1 2 1 2 1 Z " transform="translate(215 260)" class="colorBBCFC7 svgShape"></path><path fill="#bbcfc7" d="M0 0 C2 1 2 1 2 1 Z " transform="translate(217 259)" class="colorBBCFC7 svgShape"></path><path fill="#bbcec6" d="M0 0 C2 1 2 1 2 1 Z " transform="translate(219 258)" class="colorBBCEC6 svgShape"></path><path fill="#bacfc6" d="M0 0 C2 1 2 1 2 1 Z " transform="translate(222 257)" class="colorBACFC6 svgShape"></path><path fill="#bbcfc7" d="M0 0 C2 1 2 1 2 1 Z " transform="translate(224 256)" class="colorBBCFC7 svgShape"></path><path fill="#bbcfc7" d="M0 0 C2 1 2 1 2 1 Z " transform="translate(226 255)" class="colorBBCFC7 svgShape"></path><path fill="#bbcfc7" d="M0 0 C2 1 2 1 2 1 Z " transform="translate(228 254)" class="colorBBCFC7 svgShape"></path><path fill="#bbcfc7" d="M0 0 C2 1 2 1 2 1 Z " transform="translate(233 252)" class="colorBBCFC7 svgShape"></path><path fill="#bacec7" d="M0 0 C2 1 2 1 2 1 Z " transform="translate(235 251)" class="colorBACEC7 svgShape"></path><path fill="#bbcec7" d="M0 0 C2 1 2 1 2 1 Z " transform="translate(237 250)" class="colorBBCEC7 svgShape"></path><path fill="#bbcec7" d="M0 0 C2 1 2 1 2 1 Z " transform="translate(239 249)" class="colorBBCEC7 svgShape"></path><path fill="#bbcfc6" d="M0 0 C2 1 2 1 2 1 Z " transform="translate(244 247)" class="colorBBCFC6 svgShape"></path><path fill="#bacfc7" d="M0 0 C2 1 2 1 2 1 Z " transform="translate(246 246)" class="colorBACFC7 svgShape"></path><path fill="#bacec7" d="M0 0 C2 1 2 1 2 1 Z " transform="translate(248 245)" class="colorBACEC7 svgShape"></path><path fill="#bacfc7" d="M0 0 C2 1 2 1 2 1 Z " transform="translate(250 244)" class="colorBACFC7 svgShape"></path><path fill="#bbcfc6" d="M0 0 C2 1 2 1 2 1 Z " transform="translate(253 243)" class="colorBBCFC6 svgShape"></path><path fill="#bbcfc7" d="M0 0 C2 1 2 1 2 1 Z " transform="translate(255 242)" class="colorBBCFC7 svgShape"></path><path fill="#bacfc7" d="M0 0 C2 1 2 1 2 1 Z " transform="translate(257 241)" class="colorBACFC7 svgShape"></path><path fill="#bbcfc6" d="M0 0 C2 1 2 1 2 1 Z " transform="translate(259 240)" class="colorBBCFC6 svgShape"></path><path fill="#e1ebe6" d="M0 0 C2 1 2 1 2 1 Z " transform="translate(261 239)" class="colorBACEC6 svgShape"></path><path fill="#bbcfc7" d="M0 0 C2 1 2 1 2 1 Z " transform="translate(264 238)" class="colorBBCFC7 svgShape"></path><path fill="#e1ebe6" d="M0 0 C2 1 2 1 2 1 Z " transform="translate(266 237)" class="colorBACEC6 svgShape"></path><path fill="#e1ebe6" d="M0 0 C2 1 2 1 2 1 Z " transform="translate(268 236)" class="colorBACEC6 svgShape"></path><path fill="#bacfc7" d="M0 0 C2 1 2 1 2 1 Z " transform="translate(270 235)" class="colorBACFC7 svgShape"></path><path fill="#bacfc7" d="M0 0 C2 1 2 1 2 1 Z " transform="translate(275 233)" class="colorBACFC7 svgShape"></path><path fill="#bbcfc7" d="M0 0 C2 1 2 1 2 1 Z " transform="translate(277 232)" class="colorBBCFC7 svgShape"></path><path fill="#bacfc6" d="M0 0 C2 1 2 1 2 1 Z " transform="translate(279 231)" class="colorBACFC6 svgShape"></path><path fill="#bbcfc7" d="M0 0 C2 1 2 1 2 1 Z " transform="translate(281 230)" class="colorBBCFC7 svgShape"></path><path fill="#bbcfc7" d="M0 0 C2 1 2 1 2 1 Z " transform="translate(286 228)" class="colorBBCFC7 svgShape"></path><path fill="#bbcfc7" d="M0 0 C2 1 2 1 2 1 Z " transform="translate(288 227)" class="colorBBCFC7 svgShape"></path><path fill="#bbcfc6" d="M0 0 C2 1 2 1 2 1 Z " transform="translate(290 226)" class="colorBBCFC6 svgShape"></path><path fill="#e1ebe6" d="M0 0 C2 1 2 1 2 1 Z " transform="translate(292 225)" class="colorBACEC6 svgShape"></path><path fill="#bacfc6" d="M0 0 C2 1 2 1 2 1 Z " transform="translate(295 224)" class="colorBACFC6 svgShape"></path><path fill="#bacec7" d="M0 0 C2 1 2 1 2 1 Z " transform="translate(297 223)" class="colorBACEC7 svgShape"></path><path fill="#bbcec7" d="M0 0 C2 1 2 1 2 1 Z " transform="translate(299 222)" class="colorBBCEC7 svgShape"></path><path fill="#e1ebe6" d="M0 0 C2 1 2 1 2 1 Z " transform="translate(301 221)" class="colorBACEC6 svgShape"></path><path fill="#e1ebe6" d="M0 0 C2 1 2 1 2 1 Z " transform="translate(303 220)" class="colorBACEC6 svgShape"></path><path fill="#bbcfc7" d="M0 0 C2 1 2 1 2 1 Z " transform="translate(306 219)" class="colorBBCFC7 svgShape"></path><path fill="#bbcfc7" d="M0 0 C2 1 2 1 2 1 Z " transform="translate(308 218)" class="colorBBCFC7 svgShape"></path><path fill="#bacfc6" d="M0 0 C2 1 2 1 2 1 Z " transform="translate(310 217)" class="colorBACFC6 svgShape"></path><path fill="#bbcfc7" d="M0 0 C2 1 2 1 2 1 Z " transform="translate(1121 211)" class="colorBBCFC7 svgShape"></path><path fill="#bacfc6" d="M0 0 C2 1 2 1 2 1 Z " transform="translate(73 211)" class="colorBACFC6 svgShape"></path><path fill="#bbcec6" d="M0 0 C2 1 2 1 2 1 Z " transform="translate(1124 210)" class="colorBBCEC6 svgShape"></path><path fill="#bbcec6" d="M0 0 C2 1 2 1 2 1 Z " transform="translate(70 210)" class="colorBBCEC6 svgShape"></path><path fill="#bbcec7" d="M0 0 C2 1 2 1 2 1 Z " transform="translate(1127 209)" class="colorBBCEC7 svgShape"></path><path fill="#bbcec7" d="M0 0 C2 1 2 1 2 1 Z " transform="translate(67 209)" class="colorBBCEC7 svgShape"></path><path fill="#bbcfc7" d="M0 0 C2 1 2 1 2 1 Z " transform="translate(1129 208)" class="colorBBCFC7 svgShape"></path><path fill="#bbcec6" d="M0 0 C2 1 2 1 2 1 Z " transform="translate(65 208)" class="colorBBCEC6 svgShape"></path><path fill="#bbcfc7" d="M0 0 C2 1 2 1 2 1 Z " transform="translate(1134 206)" class="colorBBCFC7 svgShape"></path><path fill="#bbcfc7" d="M0 0 C2 1 2 1 2 1 Z " transform="translate(60 206)" class="colorBBCFC7 svgShape"></path><path fill="#bbcfc6" d="M0 0 C2 1 2 1 2 1 Z " transform="translate(1136 205)" class="colorBBCFC6 svgShape"></path><path fill="#bbcec7" d="M0 0 C2 1 2 1 2 1 Z " transform="translate(58 205)" class="colorBBCEC7 svgShape"></path><path fill="#bbcfc7" d="M0 0 C2 1 2 1 2 1 Z " transform="translate(1143 201)" class="colorBBCFC7 svgShape"></path><path fill="#bacfc6" d="M0 0 C2 1 2 1 2 1 Z " transform="translate(51 201)" class="colorBACFC6 svgShape"></path><path fill="#bbcec7" d="M0 0 C2 1 2 1 2 1 Z " transform="translate(1152 195)" class="colorBBCEC7 svgShape"></path><path fill="#bacec7" d="M0 0 C2 1 2 1 2 1 Z " transform="translate(42 195)" class="colorBACEC7 svgShape"></path><path fill="#e1ebe6" class="colorBACEC6 svgShape"></path><path fill="#bbcec7" class="colorBBCEC7 svgShape"></path><path fill="#e1ebe6" class="colorBACEC6 svgShape"></path><path fill="#bbcec7" class="colorBBCEC7 svgShape"></path><path fill="#e1ebe6" class="colorBACEC6 svgShape"></path><path fill="#e1ebe6" class="colorBACEC6 svgShape"></path><path fill="#e1ebe6" class="colorBACEC6 svgShape"></path><path fill="#bbcec6" class="colorBBCEC6 svgShape"></path><path fill="#e1ebe6" class="colorBACEC6 svgShape"></path><path fill="#bbcec7" class="colorBBCEC7 svgShape"></path><path fill="#e1ebe6" class="colorBACEC6 svgShape"></path><path fill="#bbcec7" class="colorBBCEC7 svgShape"></path><path fill="#e1ebe6" class="colorBACEC6 svgShape"></path><path fill="#e1ebe6" class="colorBACEC6 svgShape"></path><path fill="#e1ebe6" class="colorBACEC6 svgShape"></path><path fill="#bbcec7" class="colorBBCEC7 svgShape"></path><path fill="#e1ebe6" class="colorBACEC6 svgShape"></path><path fill="#e1ebe6" class="colorBACEC6 svgShape"></path><path fill="#e1ebe6" class="colorBACEC6 svgShape"></path><path fill="#bbcec6" class="colorBBCEC6 svgShape"></path><path fill="#e1ebe6" class="colorBACEC6 svgShape"></path><path fill="#bbcec7" class="colorBBCEC7 svgShape"></path><path fill="#e1ebe6" class="colorBACEC6 svgShape"></path><path fill="#bacfc6" class="colorBACFC6 svgShape"></path><path fill="#e1ebe6" class="colorBACEC6 svgShape"></path><path fill="#bbcec7" class="colorBBCEC7 svgShape"></path><path fill="#e1ebe6" class="colorBACEC6 svgShape"></path><path fill="#bbcfc6" class="colorBBCFC6 svgShape"></path><path fill="#e1ebe6" class="colorBACEC6 svgShape"></path><path fill="#bacec7" class="colorBACEC7 svgShape"></path><path fill="#e1ebe6" class="colorBACEC6 svgShape"></path><path fill="#bacec7" class="colorBACEC7 svgShape"></path><path fill="#e1ebe6" class="colorBACEC6 svgShape"></path><path fill="#bbcec7" class="colorBBCEC7 svgShape"></path><path fill="#e1ebe6" class="colorBACEC6 svgShape"></path><path fill="#e1ebe6" class="colorBACEC6 svgShape"></path><path fill="#e1ebe6" class="colorBACEC6 svgShape"></path><path fill="#e1ebe6" class="colorBACEC6 svgShape"></path><path fill="#bacec7" class="colorBACEC7 svgShape"></path><path fill="#e1ebe6" class="colorBACEC6 svgShape"></path><path fill="#bbcec7" class="colorBBCEC7 svgShape"></path><path fill="#e1ebe6" class="colorBACEC6 svgShape"></path><path fill="#e1ebe6" class="colorBACEC6 svgShape"></path><path fill="#e1ebe6" class="colorBACEC6 svgShape"></path><path fill="#e1ebe6" class="colorBACEC6 svgShape"></path><path fill="#e1ebe6" class="colorBACEC6 svgShape"></path><path fill="#bbcec7" class="colorBBCEC7 svgShape"></path><path fill="#e1ebe6" d="M0 0 C2 1 2 1 2 1 Z " transform="translate(1161 26)" class="colorBACEC6 svgShape"></path><path fill="#bacec7" d="M0 0 C2 1 2 1 2 1 Z " transform="translate(33 26)" class="colorBACEC7 svgShape"></path><path fill="#bacfc6" d="M0 0 C2 1 2 1 2 1 Z " transform="translate(47 15)" class="colorBACFC6 svgShape"></path><path fill="#bacfc7" d="M0 0 C2 1 2 1 2 1 Z " transform="translate(1142 12)" class="colorBACFC7 svgShape"></path><path fill="#bacec7" d="M0 0 C2 1 2 1 2 1 Z " transform="translate(52 12)" class="colorBACEC7 svgShape"></path><path fill="#bbcec6" d="M0 0 C2 1 2 1 2 1 Z " transform="translate(1140 11)" class="colorBBCEC6 svgShape"></path><path fill="#bacfc6" d="M0 0 C2 1 2 1 2 1 Z " transform="translate(54 11)" class="colorBACFC6 svgShape"></path><path fill="#e1ebe6" d="M0 0 C2 1 2 1 2 1 Z " transform="translate(1132 7)" class="colorBACEC6 svgShape"></path><path fill="#bacec7" d="M0 0 C2 1 2 1 2 1 Z " transform="translate(62 7)" class="colorBACEC7 svgShape"></path><path fill="#bbcec7" d="M0 0 C2 1 2 1 2 1 Z " transform="translate(1130 6)" class="colorBBCEC7 svgShape"></path><path fill="#bacfc7" d="M0 0 C2 1 2 1 2 1 Z " transform="translate(64 6)" class="colorBACFC7 svgShape"></path><path fill="#bacfc7" d="M0 0 C2 1 2 1 2 1 Z " transform="translate(1128 5)" class="colorBACFC7 svgShape"></path><path fill="#bbcfc7" d="M0 0 C2 1 2 1 2 1 Z " transform="translate(66 5)" class="colorBBCFC7 svgShape"></path><path fill="#bbcfc7" d="M0 0 C2 1 2 1 2 1 Z " transform="translate(1125 4)" class="colorBBCFC7 svgShape"></path><path fill="#e1ebe6" d="M0 0 C2 1 2 1 2 1 Z " transform="translate(69 4)" class="colorBACEC6 svgShape"></path><path fill="#e1ebe6" d="M0 0 C2 1 2 1 2 1 Z " transform="translate(1122 3)" class="colorBACEC6 svgShape"></path><path fill="#bbcec7" d="M0 0 C2 1 2 1 2 1 Z " transform="translate(72 3)" class="colorBBCEC7 svgShape"></path><path fill="#bbcfc7" d="M0 0 C2 1 2 1 2 1 Z " transform="translate(1119 2)" class="colorBBCFC7 svgShape"></path><path fill="#bbcec7" d="M0 0 C2 1 2 1 2 1 Z " transform="translate(75 2)" class="colorBBCEC7 svgShape"></path><path fill="#e1ebe6" class="colorBACEC6 svgShape"></path><path fill="#bacec7" class="colorBACEC7 svgShape"></path><path fill="#bbcfc7" class="colorBBCFC7 svgShape"></path><path fill="#bbcec7" class="colorBBCEC7 svgShape"></path><path fill="#bbcfc7" class="colorBBCFC7 svgShape"></path><path fill="#bbcec7" class="colorBBCEC7 svgShape"></path><path fill="#bbcec7" class="colorBBCEC7 svgShape"></path><path fill="#bbcfc7" class="colorBBCFC7 svgShape"></path><path fill="#bacfc7" class="colorBACFC7 svgShape"></path><path fill="#bacfc7" class="colorBACFC7 svgShape"></path><path fill="#bacec7" class="colorBACEC7 svgShape"></path><path fill="#e1ebe6" class="colorBACEC6 svgShape"></path><path fill="#bbcfc7" class="colorBBCFC7 svgShape"></path><path fill="#bbcfc7" class="colorBBCFC7 svgShape"></path><path fill="#bbcec6" class="colorBBCEC6 svgShape"></path><path fill="#bbcec7" class="colorBBCEC7 svgShape"></path><path fill="#bbcec7" class="colorBBCEC7 svgShape"></path><path fill="#bbcec7" class="colorBBCEC7 svgShape"></path><path fill="#bbcfc7" class="colorBBCFC7 svgShape"></path><path fill="#bbcec6" class="colorBBCEC6 svgShape"></path><path fill="#bbcec7" class="colorBBCEC7 svgShape"></path><path fill="#bbcec7" class="colorBBCEC7 svgShape"></path><path fill="#bbcec7" class="colorBBCEC7 svgShape"></path><path fill="#bbcec7" class="colorBBCEC7 svgShape"></path><path fill="#e1ebe6" class="colorBACEC6 svgShape"></path><path fill="#bbcec6" class="colorBBCEC6 svgShape"></path><path fill="#bbcec7" class="colorBBCEC7 svgShape"></path><path fill="#bbcec7" class="colorBBCEC7 svgShape"></path><path fill="#bbcec7" class="colorBBCEC7 svgShape"></path><path fill="#bbcec6" class="colorBBCEC6 svgShape"></path><path fill="#bbcec7" class="colorBBCEC7 svgShape"></path><path fill="#e1ebe6" class="colorBACEC6 svgShape"></path><path fill="#bacec7" class="colorBACEC7 svgShape"></path><path fill="#bbcfc7" class="colorBBCFC7 svgShape"></path><path fill="#bbcec7" class="colorBBCEC7 svgShape"></path><path fill="#e1ebe6" class="colorBACEC6 svgShape"></path><path fill="#bacec7" class="colorBACEC7 svgShape"></path><path fill="#bacec7" class="colorBACEC7 svgShape"></path><path fill="#bbcec7" class="colorBBCEC7 svgShape"></path><path fill="#bbcfc7" class="colorBBCFC7 svgShape"></path><path fill="#bbcfc6" class="colorBBCFC6 svgShape"></path><path fill="#bbcec7" class="colorBBCEC7 svgShape"></path><path fill="#bbcec7" class="colorBBCEC7 svgShape"></path><path fill="#e1ebe6" class="colorBACEC6 svgShape"></path><path fill="#bbcec7" class="colorBBCEC7 svgShape"></path><path fill="#bbcec7" class="colorBBCEC7 svgShape"></path><path fill="#bbcec7" class="colorBBCEC7 svgShape"></path><path fill="#bbcfc7" class="colorBBCFC7 svgShape"></path><path fill="#bbcec7" class="colorBBCEC7 svgShape"></path><path fill="#bbcec7" class="colorBBCEC7 svgShape"></path><path fill="#bbcec7" class="colorBBCEC7 svgShape"></path><path fill="#bbcec7" class="colorBBCEC7 svgShape"></path><path fill="#bbcec7" class="colorBBCEC7 svgShape"></path><path fill="#bacec7" class="colorBACEC7 svgShape"></path><path fill="#bbcfc7" class="colorBBCFC7 svgShape"></path><path fill="#bacec7" class="colorBACEC7 svgShape"></path><path fill="#bbcec7" class="colorBBCEC7 svgShape"></path><path fill="#bbcec6" class="colorBBCEC6 svgShape"></path><path fill="#bbcec7" class="colorBBCEC7 svgShape"></path><path fill="#bbcec7" class="colorBBCEC7 svgShape"></path><path fill="#bbcec7" class="colorBBCEC7 svgShape"></path><path fill="#bbcec7" class="colorBBCEC7 svgShape"></path><path fill="#bbcec6" class="colorBBCEC6 svgShape"></path><path fill="#bbcec7" class="colorBBCEC7 svgShape"></path><path fill="#bacec7" class="colorBACEC7 svgShape"></path><path fill="#bbcec7" class="colorBBCEC7 svgShape"></path><path fill="#bacec7" class="colorBACEC7 svgShape"></path><path fill="#e1ebe6" class="colorBACEC6 svgShape"></path><path fill="#bbcec6" class="colorBBCEC6 svgShape"></path><path fill="#bbcec6" class="colorBBCEC6 svgShape"></path><path fill="#e1ebe6" class="colorBACEC6 svgShape"></path><path fill="#bbcec7" class="colorBBCEC7 svgShape"></path><path fill="#e1ebe6" class="colorBACEC6 svgShape"></path><path fill="#bbcec7" class="colorBBCEC7 svgShape"></path><path fill="#bbcfc7" class="colorBBCFC7 svgShape"></path><path fill="#bbcec6" class="colorBBCEC6 svgShape"></path><path fill="#bbcec7" class="colorBBCEC7 svgShape"></path><path fill="#bbcfc6" class="colorBBCFC6 svgShape"></path><path fill="#e1ebe6" class="colorBACEC6 svgShape"></path><path fill="#bbcfc7" class="colorBBCFC7 svgShape"></path><path fill="#bbcfc7" class="colorBBCFC7 svgShape"></path><path fill="#bbcfc6" class="colorBBCFC6 svgShape"></path><path fill="#e1ebe6" class="colorBACEC6 svgShape"></path><path fill="#bbcfc7" class="colorBBCFC7 svgShape"></path><path fill="#bbcfc7" class="colorBBCFC7 svgShape"></path><path fill="#bacfc7" class="colorBACFC7 svgShape"></path><path fill="#e1ebe6" class="colorBACEC6 svgShape"></path><path fill="#bbcfc7" class="colorBBCFC7 svgShape"></path><path fill="#bbcfc7" class="colorBBCFC7 svgShape"></path><path fill="#bbcfc7" class="colorBBCFC7 svgShape"></path><path fill="#bbcec7" class="colorBBCEC7 svgShape"></path><path fill="#bbcec7" class="colorBBCEC7 svgShape"></path><path fill="#bbcfc7" class="colorBBCFC7 svgShape"></path><path fill="#bbcfc7" class="colorBBCFC7 svgShape"></path><path fill="#bbcec7" class="colorBBCEC7 svgShape"></path><path fill="#e1ebe6" class="colorBACEC6 svgShape"></path><path fill="#bbcec7" class="colorBBCEC7 svgShape"></path><path fill="#e1ebe6" class="colorBACEC6 svgShape"></path><path fill="#bbcfc7" class="colorBBCFC7 svgShape"></path><path fill="#e1ebe6" class="colorBACEC6 svgShape"></path><path fill="#bbcfc7" class="colorBBCFC7 svgShape"></path><path fill="#bbcfc7" class="colorBBCFC7 svgShape"></path><path fill="#bbcfc7" class="colorBBCFC7 svgShape"></path><path fill="#e1ebe6" class="colorBACEC6 svgShape"></path><path fill="#bacfc7" class="colorBACFC7 svgShape"></path><path fill="#e1ebe6" class="colorBACEC6 svgShape"></path><path fill="#bbcfc7" class="colorBBCFC7 svgShape"></path><path fill="#bbcfc7" class="colorBBCFC7 svgShape"></path><path fill="#bbcec7" class="colorBBCEC7 svgShape"></path><path fill="#e1ebe6" class="colorBACEC6 svgShape"></path><path fill="#e1ebe6" class="colorBACEC6 svgShape"></path><path fill="#e1ebe6" class="colorBACEC6 svgShape"></path><path fill="#bbcec7" class="colorBBCEC7 svgShape"></path><path fill="#e1ebe6" class="colorBACEC6 svgShape"></path><path fill="#bacec7" class="colorBACEC7 svgShape"></path><path fill="#e1ebe6" class="colorBACEC6 svgShape"></path><path fill="#bbcec7" class="colorBBCEC7 svgShape"></path><path fill="#bbcfc7" class="colorBBCFC7 svgShape"></path><path fill="#bacfc7" class="colorBACFC7 svgShape"></path><path fill="#e1ebe6" class="colorBACEC6 svgShape"></path><path fill="#bbcfc6" class="colorBBCFC6 svgShape"></path><path fill="#bbcfc7" class="colorBBCFC7 svgShape"></path><path fill="#bacfc7" class="colorBACFC7 svgShape"></path><path fill="#bbcfc7" class="colorBBCFC7 svgShape"></path><path fill="#bacfc6" class="colorBACFC6 svgShape"></path><path fill="#bbcfc7" class="colorBBCFC7 svgShape"></path><path fill="#bbcfc7" class="colorBBCFC7 svgShape"></path><path fill="#e1ebe6" class="colorBACEC6 svgShape"></path><path fill="#bbcec7" class="colorBBCEC7 svgShape"></path><path fill="#bbcfc7" class="colorBBCFC7 svgShape"></path><path fill="#bbcfc7" class="colorBBCFC7 svgShape"></path><path fill="#e1ebe6" class="colorBACEC6 svgShape"></path><path fill="#bbcec7" class="colorBBCEC7 svgShape"></path><path fill="#bbcfc7" class="colorBBCFC7 svgShape"></path><path fill="#bbcfc7" class="colorBBCFC7 svgShape"></path><path fill="#bbcfc7" class="colorBBCFC7 svgShape"></path><path fill="#bbcec7" class="colorBBCEC7 svgShape"></path><path fill="#e1ebe6" class="colorBACEC6 svgShape"></path><path fill="#bbcfc7" class="colorBBCFC7 svgShape"></path><path fill="#bbcfc7" class="colorBBCFC7 svgShape"></path><path fill="#bbcec7" class="colorBBCEC7 svgShape"></path><path fill="#bbcfc7" class="colorBBCFC7 svgShape"></path><path fill="#e1ebe6" class="colorBACEC6 svgShape"></path><path fill="#bbcfc7" class="colorBBCFC7 svgShape"></path><path fill="#bacfc6" class="colorBACFC6 svgShape"></path><path fill="#e1ebe6" class="colorBACEC6 svgShape"></path><path fill="#bbcec7" class="colorBBCEC7 svgShape"></path><path fill="#bbcfc7" class="colorBBCFC7 svgShape"></path><path fill="#bbcfc7" class="colorBBCFC7 svgShape"></path><path fill="#e1ebe6" class="colorBACEC6 svgShape"></path><path fill="#bbcec7" class="colorBBCEC7 svgShape"></path><path fill="#bbcfc7" class="colorBBCFC7 svgShape"></path><path fill="#bbcfc7" class="colorBBCFC7 svgShape"></path><path fill="#e1ebe6" class="colorBACEC6 svgShape"></path><path fill="#e1ebe6" class="colorBACEC6 svgShape"></path><path fill="#bbcfc7" class="colorBBCFC7 svgShape"></path><path fill="#bbcfc7" class="colorBBCFC7 svgShape"></path><path fill="#bbcfc7" class="colorBBCFC7 svgShape"></path><path fill="#bbcfc7" class="colorBBCFC7 svgShape"></path><path fill="#bbcfc7" class="colorBBCFC7 svgShape"></path><path fill="#bbcfc7" class="colorBBCFC7 svgShape"></path><path fill="#bacfc7" class="colorBACFC7 svgShape"></path><path fill="#e1ebe6" class="colorBACEC6 svgShape"></path><path fill="#bbcec6" class="colorBBCEC6 svgShape"></path><path fill="#bbcfc7" class="colorBBCFC7 svgShape"></path><path fill="#bbcfc7" class="colorBBCFC7 svgShape"></path><path fill="#bbcfc7" class="colorBBCFC7 svgShape"></path><path fill="#bbcfc7" class="colorBBCFC7 svgShape"></path><path fill="#bbcfc7" class="colorBBCFC7 svgShape"></path><path fill="#bbcfc7" class="colorBBCFC7 svgShape"></path><path fill="#bbcfc7" class="colorBBCFC7 svgShape"></path><path fill="#bbcfc7" class="colorBBCFC7 svgShape"></path><path fill="#bbcfc7" class="colorBBCFC7 svgShape"></path><path fill="#bacfc6" class="colorBACFC6 svgShape"></path><path fill="#bbcfc7" class="colorBBCFC7 svgShape"></path><path fill="#bbcfc7" class="colorBBCFC7 svgShape"></path><path fill="#e1ebe6" class="colorBACEC6 svgShape"></path><path fill="#bacfc6" class="colorBACFC6 svgShape"></path><path fill="#bbcfc7" class="colorBBCFC7 svgShape"></path><path fill="#bbcfc7" class="colorBBCFC7 svgShape"></path><path fill="#bbcfc7" class="colorBBCFC7 svgShape"></path><path fill="#bbcec7" class="colorBBCEC7 svgShape"></path><path fill="#bbcfc7" class="colorBBCFC7 svgShape"></path><path fill="#bbcec7" class="colorBBCEC7 svgShape"></path><path fill="#bbcfc7" class="colorBBCFC7 svgShape"></path><path fill="#bbcfc7" class="colorBBCFC7 svgShape"></path><path fill="#bbcfc6" class="colorBBCFC6 svgShape"></path><path fill="#bacfc6" class="colorBACFC6 svgShape"></path><path fill="#bbcfc7" class="colorBBCFC7 svgShape"></path><path fill="#bbcfc7" class="colorBBCFC7 svgShape"></path><path fill="#bbcfc7" class="colorBBCFC7 svgShape"></path><path fill="#bbcfc7" class="colorBBCFC7 svgShape"></path><path fill="#bbcfc7" class="colorBBCFC7 svgShape"></path><path fill="#e1ebe6" class="colorBACEC6 svgShape"></path><path fill="#bbcec6" class="colorBBCEC6 svgShape"></path><path fill="#bbcfc7" class="colorBBCFC7 svgShape"></path><path fill="#bbcfc7" class="colorBBCFC7 svgShape"></path><path fill="#bacfc7" class="colorBACFC7 svgShape"></path><path fill="#bbcfc7" class="colorBBCFC7 svgShape"></path><path fill="#bacfc7" class="colorBACFC7 svgShape"></path><path fill="#bbcec7" class="colorBBCEC7 svgShape"></path><path fill="#bbcfc7" class="colorBBCFC7 svgShape"></path><path fill="#bbcfc7" class="colorBBCFC7 svgShape"></path><path fill="#bbcfc7" class="colorBBCFC7 svgShape"></path><path fill="#bbcfc7" class="colorBBCFC7 svgShape"></path><path fill="#bbcfc7" class="colorBBCFC7 svgShape"></path><path fill="#bbcfc7" class="colorBBCFC7 svgShape"></path></svg></g></svg>